<?xml version="1.0" standalone="no"?>
<!DOCTYPE svg PUBLIC "-//W3C//DTD SVG 20010904//EN"
 "http://www.w3.org/TR/2001/REC-SVG-20010904/DTD/svg10.dtd">
<svg version="1.0" xmlns="http://www.w3.org/2000/svg"
 width="1450.000000pt" height="1450.000000pt" viewBox="0 0 1450.000000 1450.000000"
 preserveAspectRatio="xMidYMid meet">
<metadata>
Created by potrace 1.14, written by Peter Selinger 2001-2017
</metadata>
<g transform="translate(0.000000,1450.000000) scale(0.100000,-0.100000)"
fill="#000000" stroke="none">
<path d="M6912 13718 c2 -7 -3 -12 -9 -10 -7 1 -13 -2 -13 -8 0 -14 16 -12 29
4 8 10 9 16 1 21 -6 4 -9 1 -8 -7z"/>
<path d="M6785 13701 l20 -23 -20 2 c-36 4 -46 0 -39 -12 6 -9 3 -9 -9 0 -9 8
-21 11 -26 8 -5 -4 -12 -2 -16 4 -3 5 -12 10 -18 10 -8 0 -8 -3 2 -9 7 -5 9
-11 4 -14 -5 -3 -15 -2 -23 4 -24 15 -35 10 -14 -6 10 -8 15 -15 9 -14 -22 3
-36 -1 -31 -9 3 -5 -1 -9 -9 -9 -8 0 -12 4 -9 9 3 4 -2 5 -10 2 -8 -3 -12 -13
-10 -22 5 -15 4 -15 -6 1 -13 21 -26 21 -62 3 -18 -9 -28 -11 -28 -4 0 6 -7 5
-17 -3 -11 -10 -14 -10 -9 -1 11 18 -5 15 -21 -5 -8 -10 -12 -13 -9 -7 3 7 -6
11 -24 10 -17 -1 -30 -5 -30 -9 0 -5 -4 -6 -9 -2 -5 3 -13 1 -16 -5 -5 -8 -12
-7 -23 2 -12 10 -14 10 -8 1 4 -8 2 -13 -8 -13 -8 0 -17 6 -19 13 -3 6 -6 1
-7 -13 -1 -23 -2 -23 -10 -5 -5 11 -9 14 -9 8 -1 -7 -4 -12 -8 -12 -5 1 -10 0
-13 -1 -20 -7 -41 -7 -47 2 -4 7 -1 8 7 3 9 -5 11 -4 6 4 -4 6 -12 9 -17 5 -5
-3 -6 -10 -3 -16 5 -7 1 -9 -9 -5 -11 4 -17 1 -17 -9 0 -8 -5 -12 -10 -9 -6 4
-7 12 -3 18 5 8 2 8 -9 0 -8 -7 -17 -11 -20 -8 -2 3 -5 -2 -6 -10 -1 -8 -3
-21 -4 -28 -2 -15 -68 -18 -68 -3 0 6 -5 5 -12 -2 -14 -14 -32 -16 -23 -2 3 6
-1 7 -9 4 -9 -3 -13 -11 -10 -16 4 -6 -4 -5 -16 2 -20 11 -22 10 -17 -3 4 -12
2 -14 -10 -10 -11 4 -14 2 -9 -5 4 -8 2 -10 -8 -6 -8 3 -12 13 -10 22 4 13 3
13 -6 -2 -10 -15 -14 -16 -22 -5 -8 11 -9 10 -4 -3 4 -13 0 -18 -15 -18 -11 0
-18 -4 -15 -9 4 -5 -2 -8 -11 -6 -10 1 -23 -2 -30 -7 -7 -6 -14 -5 -19 3 -4 7
-3 9 4 5 6 -3 13 -3 16 2 2 4 -6 8 -19 8 -21 0 -22 -3 -13 -20 10 -20 10 -20
-7 -6 -17 14 -18 13 -13 -2 5 -12 1 -16 -17 -13 -13 1 -26 -4 -29 -11 -3 -7
-14 -10 -27 -7 -13 4 -25 0 -30 -9 -5 -9 -21 -14 -39 -13 -16 1 -30 -2 -30 -7
0 -4 -5 -8 -11 -8 -5 0 -7 5 -4 10 3 6 1 10 -4 10 -6 0 -11 -7 -11 -15 0 -8
-5 -15 -11 -15 -5 0 -7 6 -3 13 6 10 4 10 -7 0 -7 -7 -17 -13 -22 -13 -4 0 -5
6 -2 13 4 6 0 4 -8 -5 -16 -21 -32 -24 -21 -5 6 9 5 9 -8 0 -8 -7 -18 -9 -22
-5 -4 4 -7 3 -6 -3 1 -5 2 -16 1 -24 -1 -12 -4 -11 -14 3 -12 17 -15 16 -38
-8 -27 -29 -49 -36 -28 -8 13 15 12 16 -2 4 -10 -7 -27 -15 -39 -17 -13 -2
-25 -7 -29 -11 -3 -4 2 -4 12 -1 20 7 24 -8 3 -16 -7 -3 -19 0 -26 6 -10 9
-11 9 -6 0 7 -12 -6 -17 -41 -16 -7 1 -10 -3 -7 -8 3 -5 -2 -12 -11 -15 -11
-5 -13 -10 -5 -19 8 -10 8 -15 -1 -21 -8 -4 -9 -3 -5 4 10 16 -5 15 -26 -2
-10 -7 -14 -17 -10 -21 4 -5 1 -5 -6 -1 -7 4 -10 11 -7 16 3 4 -3 7 -12 5 -10
-2 -22 -4 -26 -4 -5 -1 -5 -7 -1 -13 4 -7 4 -10 -1 -6 -4 4 -14 3 -22 -4 -11
-8 -12 -7 -7 6 5 12 2 15 -10 10 -9 -3 -13 -11 -9 -17 3 -6 1 -7 -5 -3 -7 4
-12 2 -12 -4 0 -6 -5 -8 -11 -4 -8 5 -8 9 1 14 9 5 9 9 1 14 -6 4 -11 2 -11
-4 0 -6 -6 -8 -12 -4 -7 4 -10 4 -6 -1 10 -11 -24 -35 -37 -27 -17 11 -35 11
-42 0 -3 -6 -2 -8 3 -5 6 3 16 2 24 -3 11 -6 4 -9 -20 -7 -19 1 -38 7 -42 12
-5 7 -8 7 -9 0 0 -5 -2 -17 -4 -26 -3 -17 18 -20 32 -4 4 4 2 5 -6 0 -10 -6
-12 -4 -7 4 6 8 12 9 20 2 7 -6 17 -7 21 -3 5 4 5 1 1 -6 -4 -7 -12 -10 -17
-7 -5 4 -9 1 -9 -4 0 -6 -8 -11 -18 -11 -10 0 -24 -6 -31 -12 -11 -10 -13 -10
-7 0 4 6 3 12 -2 12 -5 0 -12 -9 -15 -21 -3 -12 -12 -19 -19 -17 -7 3 -19 -2
-26 -11 -8 -9 -10 -10 -7 -3 6 11 3 11 -13 1 -12 -7 -19 -16 -16 -20 2 -4 -5
-10 -16 -14 -11 -4 -17 -11 -14 -17 4 -6 -1 -6 -14 1 -16 8 -21 7 -26 -5 -5
-13 -9 -14 -20 -5 -12 10 -14 8 -10 -11 2 -13 2 -17 -2 -10 -8 17 -24 15 -24
-3 0 -12 -4 -14 -19 -5 -17 9 -19 7 -16 -10 2 -11 -1 -23 -7 -26 -7 -4 -8 -2
-4 4 4 7 1 12 -9 12 -9 0 -13 -4 -10 -10 3 -6 -4 -10 -18 -10 -14 0 -31 -8
-38 -17 -13 -16 -12 -17 3 -5 12 10 18 10 24 1 4 -7 3 -9 -4 -5 -6 3 -14 1
-17 -5 -4 -5 -14 -8 -22 -4 -13 4 -14 3 -3 -10 11 -13 10 -14 -5 -9 -13 5 -16
4 -11 -4 5 -8 1 -10 -10 -5 -13 5 -15 3 -9 -7 6 -10 4 -12 -9 -7 -14 6 -17 3
-12 -9 5 -14 4 -15 -8 -5 -14 12 -49 5 -41 -9 3 -4 -2 -13 -10 -20 -8 -7 -12
-17 -8 -23 3 -6 1 -7 -6 -3 -9 6 -9 12 1 24 12 15 11 16 -5 3 -10 -8 -15 -21
-12 -29 4 -12 3 -12 -9 -3 -11 9 -15 7 -19 -9 -4 -14 -10 -18 -24 -14 -16 6
-16 5 2 -10 11 -9 16 -16 10 -15 -25 3 -36 -2 -29 -13 5 -9 2 -8 -9 1 -10 8
-20 11 -24 7 -3 -3 -1 -6 5 -6 7 0 12 -5 12 -11 0 -5 -4 -7 -10 -4 -5 3 -10
-3 -10 -15 0 -12 -5 -18 -10 -15 -6 4 -7 12 -3 18 4 7 0 6 -10 -2 -9 -7 -17
-21 -17 -30 0 -14 -2 -14 -10 -1 -8 13 -10 12 -10 -3 0 -9 -3 -16 -7 -16 -21
3 -24 -3 -12 -18 10 -11 10 -14 2 -9 -7 4 -13 3 -13 -2 0 -5 -11 -8 -25 -7
-14 2 -23 -1 -20 -5 3 -5 -3 -14 -12 -20 -17 -10 -17 -10 1 -8 10 2 21 -2 23
-9 3 -7 -5 -10 -21 -9 -22 3 -24 1 -15 -17 7 -12 7 -17 1 -13 -14 8 -43 -4
-36 -15 5 -8 -9 -13 -28 -10 -5 0 -8 -5 -8 -13 0 -8 -4 -18 -10 -21 -6 -4 -7
1 -3 11 4 12 3 15 -5 10 -16 -9 -15 -33 1 -40 6 -3 3 -4 -9 -1 -24 6 -50 -18
-38 -36 4 -7 8 -23 10 -35 2 -21 0 -23 -19 -12 -20 10 -21 10 -8 -6 12 -14 12
-16 -4 -10 -15 6 -17 3 -13 -14 4 -12 2 -20 -2 -17 -5 3 -11 1 -15 -5 -4 -6
-11 -7 -17 -4 -7 5 -8 2 -3 -6 6 -10 4 -12 -8 -7 -11 4 -14 2 -10 -9 3 -7 0
-14 -7 -14 -7 0 -10 -7 -7 -14 4 -9 1 -13 -6 -10 -7 2 -21 -2 -32 -11 -20 -15
-20 -15 0 -9 15 5 17 4 9 -5 -6 -7 -20 -13 -31 -14 -14 -1 -19 -6 -15 -16 4
-10 1 -12 -8 -6 -10 6 -12 4 -6 -10 5 -15 4 -16 -9 -5 -9 7 -15 9 -14 4 4 -22
-2 -33 -16 -28 -8 4 -15 1 -15 -6 0 -6 -5 -8 -12 -4 -10 6 -10 4 0 -8 11 -14
9 -19 -14 -37 -15 -12 -23 -21 -19 -21 4 0 2 -6 -4 -13 -6 -8 -7 -17 -3 -21 4
-4 3 -7 -3 -6 -26 6 -37 0 -27 -13 9 -10 5 -13 -18 -11 -17 1 -27 -2 -24 -7 3
-5 9 -7 14 -4 5 3 12 0 16 -6 5 -8 3 -9 -6 -4 -9 6 -12 4 -8 -6 3 -8 -1 -24
-9 -34 -11 -13 -14 -15 -10 -4 3 9 0 16 -8 16 -7 0 -10 -8 -7 -19 2 -10 -1
-18 -7 -18 -7 0 -9 5 -5 12 4 7 3 8 -5 4 -9 -6 -9 -11 0 -22 10 -12 8 -16 -9
-21 -12 -3 -22 -10 -22 -15 0 -5 5 -6 10 -3 6 3 10 1 10 -4 0 -10 -14 -15 -33
-12 -4 1 -3 -7 3 -18 15 -29 12 -38 -6 -15 -8 10 -13 13 -9 7 3 -7 1 -13 -5
-13 -6 0 -8 -4 -5 -10 3 -5 2 -10 -3 -10 -5 0 -12 -14 -16 -31 -5 -27 -8 -30
-21 -19 -14 11 -14 10 -5 -15 9 -25 9 -26 -5 -15 -8 7 -15 9 -15 4 0 -5 -5 -2
-10 6 -8 11 -9 7 -4 -14 6 -23 4 -27 -7 -21 -11 7 -12 6 -2 -6 8 -10 9 -19 1
-29 -8 -12 -9 -12 -4 3 5 15 3 16 -14 7 -11 -6 -20 -13 -20 -16 0 -3 5 -2 10
1 6 3 10 1 10 -4 0 -6 -4 -11 -9 -11 -4 0 -7 -10 -6 -23 2 -15 -5 -28 -17 -36
-16 -10 -19 -10 -12 1 10 16 17 54 8 46 -3 -3 -6 -12 -8 -20 -1 -7 -5 -19 -9
-25 -5 -7 -5 -13 0 -13 4 0 1 -5 -7 -11 -13 -9 -12 -10 2 -5 10 3 20 1 22 -3
8 -12 -29 -43 -39 -34 -5 5 -4 1 3 -9 11 -13 10 -19 -7 -30 -12 -8 -18 -18
-13 -23 4 -4 -2 -5 -13 -1 -16 6 -17 5 -8 -5 10 -10 9 -15 -5 -26 -16 -13 -16
-13 3 -11 28 4 26 -24 -2 -37 -13 -5 -23 -13 -23 -18 0 -4 4 -6 9 -2 5 3 12 1
16 -5 3 -5 -2 -10 -12 -10 -17 -1 -17 -2 -1 -13 15 -12 15 -14 -3 -25 -15 -10
-17 -17 -9 -38 9 -22 7 -27 -10 -31 -11 -3 -17 -9 -15 -14 3 -4 13 -6 23 -3
12 4 11 2 -3 -8 -21 -13 -26 -30 -13 -43 4 -4 1 -17 -6 -29 -7 -11 -12 -31
-11 -44 1 -13 -4 -26 -12 -29 -11 -4 -11 -8 -1 -21 9 -11 9 -13 1 -9 -6 4 -14
3 -18 -3 -3 -5 0 -10 7 -10 9 0 9 -3 -2 -10 -8 -5 -11 -10 -6 -10 6 0 1 -7
-10 -16 -10 -8 -12 -12 -4 -8 11 6 10 2 -3 -13 -9 -11 -14 -23 -10 -26 9 -9
10 -57 1 -51 -3 2 -9 0 -13 -6 -3 -5 0 -10 7 -10 9 0 9 -3 -2 -10 -8 -5 -11
-10 -6 -10 5 0 3 -7 -4 -15 -11 -13 -10 -14 4 -9 9 3 16 1 16 -5 0 -6 -7 -11
-15 -11 -8 0 -15 -5 -15 -11 0 -5 5 -7 10 -4 6 3 10 1 10 -4 0 -6 -4 -11 -10
-11 -5 0 -7 -7 -4 -15 3 -8 2 -20 -2 -27 -12 -19 -14 -39 -3 -32 5 3 6 10 3
16 -5 7 -2 8 5 4 9 -6 8 -12 -4 -26 -9 -10 -15 -21 -14 -26 4 -21 -2 -28 -12
-14 -9 13 -10 13 -6 0 2 -8 12 -13 22 -12 15 3 17 1 7 -10 -9 -11 -9 -17 1
-27 9 -10 8 -11 -7 -5 -13 5 -17 4 -12 -4 4 -6 2 -20 -4 -31 -6 -12 -6 -22 -1
-26 10 -5 7 -37 -4 -55 -3 -6 0 -10 7 -10 11 0 10 -2 0 -9 -11 -6 -10 -10 5
-15 17 -7 17 -8 1 -17 -10 -6 -18 -15 -18 -21 0 -6 7 -5 17 3 16 13 16 11 -1
-15 -10 -16 -13 -25 -7 -22 7 5 10 -1 8 -14 -2 -12 -10 -26 -18 -31 -12 -7
-12 -9 1 -10 8 -1 17 -1 20 -1 3 0 6 -8 6 -19 0 -13 -5 -18 -16 -14 -12 5 -13
4 -2 -6 16 -17 16 -52 0 -44 -7 4 -3 -2 9 -13 18 -16 20 -21 9 -25 -8 -3 -13
-14 -11 -24 2 -10 4 -24 4 -31 1 -7 4 -11 9 -8 4 2 8 -9 8 -25 1 -16 -2 -29
-7 -29 -4 0 -6 9 -4 20 2 11 0 18 -5 15 -4 -3 -7 -13 -5 -23 1 -9 -3 -23 -9
-31 -9 -12 -8 -13 3 -7 11 7 13 0 10 -31 -4 -33 -1 -40 11 -35 13 5 13 3 1
-11 -10 -13 -11 -20 -2 -30 8 -10 7 -17 -1 -25 -8 -8 -6 -15 6 -27 20 -21 20
-26 0 -18 -14 5 -14 3 -3 -16 8 -11 18 -21 23 -21 6 0 1 -7 -10 -16 -10 -8
-14 -13 -8 -10 6 3 9 -6 6 -25 -2 -16 2 -36 9 -45 10 -13 10 -17 -2 -25 -12
-8 -12 -10 1 -19 13 -9 13 -10 0 -10 -12 0 -13 -2 -1 -9 11 -7 11 -9 0 -14
-10 -4 -10 -6 -1 -6 16 -1 16 -28 0 -34 -7 -3 -3 -6 8 -6 12 -1 25 -8 28 -17
3 -8 2 -13 -3 -10 -10 7 -34 -19 -37 -40 -1 -8 2 -14 7 -14 5 0 9 -12 9 -26 0
-16 -4 -23 -12 -18 -7 4 -8 3 -4 -5 6 -9 11 -9 24 1 12 10 14 10 8 1 -5 -9 -1
-13 11 -14 16 0 16 -1 -2 -9 -19 -8 -19 -9 -1 -9 16 -1 17 -3 5 -18 -10 -11
-10 -14 -1 -9 6 4 12 2 12 -3 0 -10 -14 -15 -33 -12 -5 1 -6 -3 -2 -9 3 -6 12
-7 18 -4 7 4 9 4 5 -1 -4 -4 -3 -14 3 -21 13 -16 2 -37 -14 -27 -8 4 -7 1 1
-9 9 -11 9 -18 2 -21 -6 -3 -5 -4 2 -3 7 2 12 8 11 14 -2 6 4 9 12 5 12 -4 13
-9 4 -19 -7 -8 -7 -14 -2 -14 6 0 9 -11 8 -25 -2 -14 1 -28 7 -31 5 -3 2 -15
-9 -27 -10 -11 -12 -17 -5 -13 6 4 12 3 12 -3 0 -5 -6 -12 -12 -14 -10 -4 -10
-6 0 -6 9 -1 10 -6 3 -20 -8 -14 -7 -22 7 -32 16 -13 16 -12 3 6 -14 19 -14
19 3 3 19 -17 13 -43 -7 -31 -8 5 -8 2 0 -9 7 -8 10 -18 6 -21 -3 -4 -1 -7 6
-7 7 0 9 -5 6 -10 -4 -6 -10 -8 -15 -5 -4 3 -6 -4 -3 -15 3 -11 10 -20 15 -20
5 0 6 -5 3 -10 -4 -6 -11 -7 -17 -4 -7 4 -8 2 -4 -5 4 -6 10 -9 14 -7 4 2 13
-2 20 -10 11 -12 10 -14 -4 -14 -14 0 -14 -3 -4 -15 11 -13 10 -14 -5 -9 -14
6 -16 4 -9 -7 5 -8 9 -18 9 -24 0 -5 8 -9 17 -7 9 1 20 -3 24 -9 4 -8 3 -9 -4
-5 -7 4 -12 3 -12 -3 0 -5 5 -13 11 -17 8 -4 7 -9 -2 -15 -11 -7 -10 -11 6
-24 14 -11 15 -13 4 -9 -10 3 -20 0 -25 -7 -4 -7 -3 -10 4 -6 5 4 18 4 27 1
13 -5 14 -8 3 -15 -10 -7 -11 -9 0 -9 7 0 10 -4 7 -10 -3 -5 -1 -10 6 -10 7 0
4 -7 -7 -15 -13 -10 -14 -14 -5 -15 11 0 11 -3 1 -15 -11 -13 -7 -19 11 -17 4
1 3 -14 -1 -33 -5 -20 -4 -33 1 -29 5 3 9 0 9 -6 0 -6 5 -8 12 -4 7 4 8 3 4
-5 -4 -6 -11 -9 -16 -6 -5 3 -11 1 -14 -4 -4 -5 6 -8 21 -6 25 3 26 2 8 -11
-18 -14 -18 -14 1 -14 16 0 16 -2 4 -10 -13 -8 -13 -13 -2 -31 8 -11 9 -18 4
-15 -17 10 -22 -23 -6 -39 9 -8 14 -21 11 -28 -2 -6 3 -18 12 -25 9 -8 10 -10
2 -6 -10 5 -11 1 -6 -17 18 -57 18 -55 6 -39 -6 8 -11 10 -11 4 0 -6 7 -17 15
-24 11 -9 12 -17 4 -31 -7 -15 -6 -19 6 -19 18 0 20 -40 3 -59 -10 -11 -10
-13 0 -7 7 5 12 1 12 -9 0 -10 -5 -14 -12 -10 -7 4 -5 0 5 -8 18 -15 18 -16 0
-27 -15 -10 -16 -11 -1 -6 20 6 34 -10 16 -17 -9 -4 -10 -8 -2 -14 6 -4 17
-19 24 -32 10 -19 10 -22 -1 -16 -8 6 -10 4 -3 -6 4 -8 9 -25 10 -37 0 -13 7
-28 15 -33 11 -7 11 -9 1 -9 -10 0 -10 -4 2 -16 18 -17 21 -28 7 -19 -5 3 -13
1 -16 -5 -4 -6 -1 -9 7 -8 7 2 13 -4 13 -12 0 -8 4 -21 9 -29 6 -10 5 -12 -2
-7 -8 5 -12 0 -12 -13 0 -10 6 -22 13 -24 9 -4 9 -6 0 -6 -7 -1 -13 -6 -13
-12 0 -5 4 -8 9 -5 5 3 12 -1 15 -10 3 -8 2 -13 -3 -10 -4 3 -8 -8 -7 -23 1
-16 3 -28 6 -26 3 1 14 -1 25 -6 19 -7 19 -8 -3 -8 -19 -1 -21 -3 -10 -15 7
-8 18 -11 23 -8 6 3 3 -3 -5 -13 -9 -11 -10 -16 -2 -11 7 4 12 2 12 -4 0 -6 5
-8 13 -4 8 5 7 2 -2 -9 -12 -15 -12 -17 0 -12 10 4 15 -1 15 -14 0 -16 -3 -18
-15 -8 -12 10 -13 9 -7 -1 4 -7 3 -19 -4 -27 -9 -11 -7 -12 8 -8 23 5 39 -24
22 -41 -8 -8 -9 -6 -5 5 8 21 -6 31 -25 17 -12 -8 -12 -9 2 -4 12 3 15 1 11
-9 -4 -11 -10 -12 -24 -4 -13 6 -19 6 -19 0 0 -6 -7 -7 -17 -4 -12 5 -14 3 -8
-8 8 -12 6 -12 -8 0 -11 8 -17 9 -17 3 0 -7 -7 -9 -17 -5 -11 4 -14 3 -9 -6 6
-8 2 -11 -10 -9 -12 2 -18 -2 -16 -10 1 -8 -2 -11 -8 -7 -6 3 -17 -1 -26 -9
-8 -9 -12 -16 -7 -16 4 0 0 -5 -10 -11 -9 -6 -15 -14 -12 -20 3 -5 -1 -6 -9
-3 -11 4 -14 -1 -12 -20 2 -14 -1 -23 -5 -20 -10 6 -23 -41 -16 -53 3 -5 2
-15 -3 -23 -6 -9 -3 -19 8 -28 12 -10 13 -12 2 -7 -10 4 -9 2 2 -8 10 -8 15
-17 11 -20 -3 -4 -1 -7 5 -7 7 0 12 -7 12 -15 0 -8 6 -15 14 -15 10 0 13 -7
11 -20 -2 -11 0 -18 6 -15 5 4 9 -1 9 -9 0 -8 5 -18 12 -22 7 -5 8 -3 3 6 -5
8 -4 11 3 6 6 -3 9 -15 7 -26 -2 -12 0 -18 6 -15 5 4 9 -1 9 -10 0 -9 5 -13
11 -9 8 5 9 2 1 -11 -8 -15 -4 -24 20 -45 19 -18 26 -30 19 -34 -8 -5 -7 -12
3 -22 9 -8 13 -21 10 -29 -4 -9 0 -15 7 -15 10 0 10 -3 2 -11 -9 -9 -8 -16 3
-27 13 -12 13 -16 2 -23 -8 -6 -9 -9 -2 -9 7 0 15 -7 18 -16 5 -13 4 -14 -7
-6 -10 9 -14 8 -14 -3 0 -8 5 -15 11 -15 6 0 2 -7 -8 -15 -12 -9 -15 -15 -7
-15 11 0 11 -3 1 -15 -7 -8 -10 -26 -8 -40 3 -15 1 -22 -5 -18 -6 4 -8 0 -4
-10 3 -9 1 -18 -6 -21 -9 -3 -9 -5 1 -5 6 -1 12 -12 12 -25 0 -13 6 -27 13
-29 9 -4 9 -6 -1 -6 -10 -1 -7 -10 8 -30 13 -20 17 -32 9 -36 -7 -5 -3 -12 11
-22 17 -12 19 -18 9 -29 -8 -10 -8 -14 0 -14 6 0 11 -7 11 -15 0 -8 6 -15 13
-15 8 0 7 -4 -3 -10 -8 -5 -10 -10 -4 -10 7 0 15 -7 18 -16 3 -8 2 -12 -4 -9
-5 3 -3 -7 5 -22 8 -15 15 -36 15 -45 0 -10 6 -18 13 -18 8 0 7 -4 -3 -10 -13
-9 -13 -10 0 -10 13 0 13 -1 0 -10 -12 -7 -12 -10 -1 -10 7 0 11 -6 7 -15 -3
-8 0 -15 7 -15 8 0 6 -4 -3 -10 -9 -6 -11 -10 -3 -10 7 0 10 -7 7 -15 -4 -8
-1 -15 5 -15 8 0 9 -6 2 -18 -7 -13 -6 -23 1 -30 7 -7 8 -12 4 -12 -5 0 -3 -7
4 -15 7 -8 9 -15 4 -15 -5 0 -9 -11 -9 -24 0 -15 5 -22 13 -19 6 3 12 0 12 -6
0 -6 -4 -11 -8 -11 -5 0 -9 -7 -9 -15 0 -10 6 -14 16 -10 11 4 10 0 -5 -16
-10 -12 -14 -19 -7 -16 6 4 14 3 18 -3 3 -5 0 -10 -7 -10 -9 0 -10 -3 -2 -8 6
-4 10 -15 8 -24 -1 -10 2 -18 8 -18 6 0 7 -7 4 -16 -4 -10 1 -26 11 -38 17
-20 17 -20 -1 -6 -18 14 -19 14 -6 -10 8 -14 13 -33 11 -42 -1 -10 3 -18 10
-18 8 0 8 -4 -1 -15 -9 -11 -9 -15 -1 -15 7 0 9 -4 6 -10 -3 -5 -1 -10 5 -10
8 0 7 -6 -1 -21 -9 -17 -8 -20 2 -14 9 6 11 3 6 -8 -4 -12 -2 -14 11 -10 15 6
15 5 3 -10 -7 -9 -9 -17 -4 -17 5 0 10 -6 11 -12 1 -7 3 -24 4 -38 2 -14 7
-28 12 -32 5 -3 9 -29 9 -57 -1 -36 2 -49 11 -44 6 4 6 0 -2 -9 -9 -11 -10
-18 -2 -23 7 -4 7 -12 0 -26 -6 -10 -7 -19 -2 -19 5 0 10 -10 10 -22 2 -40 7
-63 14 -69 5 -3 9 -17 10 -31 1 -15 6 -24 10 -22 4 3 8 2 9 -3 3 -30 9 -48 19
-51 5 -2 8 -8 4 -13 -3 -5 0 -9 7 -9 7 0 10 -3 6 -6 -3 -4 7 -19 23 -35 16
-16 32 -38 35 -49 4 -11 11 -18 16 -15 5 4 9 1 9 -5 0 -6 4 -8 10 -5 5 3 10 0
10 -7 0 -7 12 -22 27 -32 14 -11 23 -14 19 -8 -4 7 -2 12 3 12 6 0 11 -7 11
-15 0 -9 9 -15 25 -15 14 0 25 -5 25 -10 0 -7 6 -7 18 -1 13 7 22 7 29 0 8 -8
13 -7 17 0 5 8 13 8 26 1 14 -7 23 -6 34 5 10 10 17 12 21 5 5 -8 11 -8 19 -1
7 6 16 8 19 4 4 -3 7 0 7 8 0 11 2 11 10 -1 6 -10 10 -11 10 -2 0 20 34 13 50
-10 8 -13 13 -27 12 -32 -2 -5 5 -18 15 -29 13 -14 13 -18 3 -12 -10 6 -9 1 3
-13 11 -11 16 -25 13 -30 -3 -6 0 -12 8 -15 15 -6 16 -23 2 -46 -6 -10 -5 -12
2 -7 7 4 12 1 12 -9 0 -9 4 -14 9 -11 5 3 9 -5 9 -19 0 -13 7 -31 16 -40 18
-18 21 -30 6 -20 -5 3 -10 2 -10 -4 0 -5 5 -13 10 -16 6 -4 7 -11 4 -17 -5 -8
-1 -9 10 -5 10 4 15 3 11 -4 -4 -5 -1 -17 7 -26 9 -12 9 -15 1 -9 -7 4 -13 2
-13 -3 0 -6 5 -11 11 -11 6 0 9 -9 6 -20 -4 -14 0 -20 11 -21 11 0 12 -2 5 -6
-10 -3 -9 -8 2 -20 8 -8 13 -19 10 -24 -4 -5 0 -9 7 -9 9 0 9 -3 -2 -10 -13
-8 -13 -10 2 -10 11 0 16 -6 13 -20 -2 -11 0 -20 6 -20 5 0 9 -9 9 -20 0 -11
5 -20 10 -20 6 0 10 -5 10 -11 0 -5 -6 -7 -12 -3 -7 4 -5 -2 5 -14 11 -11 16
-26 12 -31 -3 -6 -1 -11 4 -11 6 0 11 -7 11 -15 0 -8 6 -15 13 -15 8 0 7 -4
-3 -10 -10 -6 -11 -10 -2 -10 6 0 12 -9 12 -20 0 -12 7 -20 18 -20 14 0 15 -2
2 -10 -9 -6 -11 -10 -3 -10 7 0 10 -7 7 -15 -4 -9 1 -18 11 -21 13 -5 14 -9 3
-15 -10 -6 -8 -9 7 -9 17 0 17 -2 5 -10 -8 -5 -10 -10 -4 -10 6 0 22 -24 35
-54 13 -30 26 -53 29 -51 3 2 7 -6 7 -18 1 -12 9 -27 17 -33 9 -6 13 -14 9
-17 -3 -4 -1 -7 6 -7 7 0 9 -5 6 -10 -3 -6 -1 -10 5 -10 6 0 9 -4 5 -9 -3 -5
1 -16 9 -24 8 -8 12 -17 9 -21 -4 -3 1 -6 10 -6 9 0 17 -5 17 -11 0 -5 -6 -7
-12 -4 -7 4 -2 -3 12 -15 14 -12 18 -19 10 -15 -10 4 -9 1 3 -8 9 -8 17 -17
17 -21 0 -4 7 -14 15 -23 8 -8 13 -18 10 -22 -5 -9 25 -40 40 -40 5 0 11 -5
13 -13 2 -9 0 -8 -7 2 -6 8 -11 10 -11 4 0 -7 13 -22 29 -35 16 -13 27 -27 25
-31 -3 -5 2 -11 10 -14 9 -3 16 -10 16 -16 0 -13 26 -38 40 -38 7 0 10 -6 7
-14 -3 -8 2 -16 11 -18 16 -5 22 -24 25 -80 1 -10 4 -18 7 -18 3 0 6 -18 7
-41 1 -22 8 -48 15 -57 9 -11 10 -14 1 -8 -17 9 -17 -6 -1 -23 10 -11 10 -13
1 -7 -7 4 -13 2 -13 -3 0 -6 6 -11 13 -11 8 0 7 -4 -3 -10 -11 -7 -12 -10 -2
-10 8 0 12 -6 9 -12 -2 -7 0 -25 4 -40 5 -18 4 -28 -3 -28 -7 0 -7 -4 -1 -12
6 -7 9 -28 7 -46 -1 -18 2 -30 7 -27 13 9 11 -9 -3 -23 -8 -8 -9 -12 -1 -12
13 0 12 -18 -1 -39 -7 -10 -6 -12 4 -6 10 6 12 4 7 -7 -3 -9 0 -21 6 -28 9
-10 9 -11 0 -6 -17 9 -17 -6 -1 -23 11 -11 10 -12 -1 -6 -10 6 -12 2 -7 -13 4
-11 2 -23 -4 -27 -8 -5 -8 -11 1 -21 6 -8 8 -14 4 -14 -4 0 -2 -6 4 -14 9 -11
9 -16 0 -21 -8 -6 -7 -10 2 -16 12 -7 12 -9 0 -9 -11 0 -11 -3 0 -17 10 -11
10 -14 2 -9 -16 9 -16 5 -3 -30 10 -25 9 -26 -6 -13 -16 13 -16 12 -6 -7 8
-16 8 -24 -1 -34 -10 -10 -9 -11 2 -5 11 6 13 4 8 -7 -3 -9 -3 -19 1 -22 13
-14 10 -34 -6 -29 -10 4 -13 2 -8 -6 13 -20 14 -61 2 -61 -6 0 -4 -5 4 -10 13
-8 13 -10 1 -10 -11 0 -10 -4 4 -13 13 -10 15 -16 6 -21 -6 -4 -9 -11 -6 -16
3 -5 1 -19 -6 -31 -8 -15 -8 -19 0 -15 13 9 14 -4 1 -24 -5 -9 -5 -19 1 -26 7
-8 6 -14 -1 -19 -7 -4 -7 -13 1 -27 9 -17 9 -20 -3 -15 -9 3 -15 -1 -15 -9 0
-8 4 -14 9 -14 4 0 8 -5 8 -11 0 -5 -4 -8 -8 -5 -4 2 -8 -4 -8 -14 0 -10 4
-16 9 -13 5 3 4 -4 -2 -14 -6 -11 -7 -23 -4 -27 3 -3 2 -6 -4 -6 -6 0 -10 -13
-9 -30 1 -16 -1 -30 -6 -30 -4 0 -5 -6 -2 -14 3 -8 0 -17 -6 -21 -9 -6 -9 -10
1 -16 11 -7 10 -9 -5 -9 -15 0 -16 -3 -7 -14 10 -11 9 -16 -4 -24 -9 -5 -16
-12 -16 -15 3 -21 0 -27 -11 -21 -8 5 -7 0 2 -11 12 -15 12 -17 1 -10 -11 6
-13 2 -9 -19 4 -18 1 -29 -8 -33 -8 -3 -11 -9 -8 -14 3 -5 0 -9 -6 -9 -6 0 -8
-4 -5 -10 3 -5 1 -10 -4 -10 -6 0 -10 -3 -9 -7 3 -11 -20 -73 -27 -73 -3 0 -3
6 1 13 4 7 3 9 -2 4 -5 -5 -9 -18 -9 -30 -1 -12 -6 -21 -13 -20 -7 2 -9 -4 -5
-14 4 -10 2 -14 -4 -10 -12 8 -26 -20 -18 -33 3 -5 0 -12 -6 -16 -8 -5 -9 -3
-4 6 5 9 4 11 -3 6 -7 -4 -12 -14 -12 -22 0 -8 -7 -17 -15 -20 -8 -4 -12 -11
-8 -17 4 -6 0 -8 -11 -4 -14 6 -15 3 -6 -13 6 -11 7 -20 3 -19 -21 3 -34 -2
-28 -12 4 -6 -3 -13 -15 -16 -11 -3 -19 -11 -16 -18 2 -7 -7 -18 -20 -24 -14
-6 -23 -15 -20 -19 2 -4 -5 -14 -17 -22 -21 -12 -21 -12 -8 6 8 10 2 7 -13 -9
-15 -15 -32 -24 -38 -21 -7 5 -9 2 -5 -8 4 -11 -7 -21 -39 -34 -32 -13 -43
-23 -39 -33 3 -9 3 -12 -1 -8 -4 4 -14 1 -22 -6 -13 -10 -14 -9 -7 3 4 8 -1 6
-12 -5 -11 -11 -18 -24 -15 -29 3 -5 0 -6 -6 -2 -13 8 -63 -14 -56 -25 3 -5 0
-10 -5 -10 -12 -2 -26 -5 -38 -9 -5 -1 -12 -2 -16 -1 -5 1 -6 -3 -3 -8 8 -12
-22 -23 -37 -14 -7 4 -5 -2 3 -12 14 -17 13 -18 -2 -12 -10 3 -23 1 -30 -6
-23 -21 -66 -40 -77 -33 -7 5 -8 1 -4 -10 5 -14 3 -16 -11 -11 -10 4 -15 3
-11 -3 6 -9 -8 -14 -27 -11 -5 0 -8 -4 -8 -10 0 -6 -7 -8 -16 -5 -8 3 -12 2
-9 -4 3 -6 -4 -10 -15 -10 -14 0 -20 -5 -17 -13 3 -8 -1 -14 -9 -14 -7 0 -10
5 -6 11 3 6 -6 3 -21 -7 -15 -10 -33 -15 -40 -10 -9 5 -9 3 1 -9 10 -13 9 -15
-10 -14 -13 1 -33 -1 -46 -6 -15 -5 -21 -4 -17 2 3 6 -1 10 -10 10 -10 0 -13
-5 -9 -12 4 -7 -3 -4 -16 7 -13 11 -21 16 -18 10 3 -5 0 -16 -8 -23 -8 -7 -14
-8 -14 -2 0 19 -21 10 -30 -13 -5 -12 -9 -16 -9 -9 -1 6 -6 12 -12 12 -5 0 -8
-3 -6 -7 7 -11 -19 -33 -29 -25 -4 4 -4 -1 -1 -10 5 -15 2 -16 -18 -8 -19 7
-23 6 -18 -6 3 -9 0 -14 -8 -12 -8 2 -13 -2 -12 -9 2 -7 -4 -10 -12 -7 -8 4
-12 11 -8 17 3 6 1 7 -6 3 -6 -4 -9 -11 -6 -16 3 -5 1 -11 -5 -15 -5 -3 -10 0
-10 7 0 8 -4 7 -10 -4 -6 -10 -19 -15 -30 -13 -13 3 -18 0 -14 -7 5 -7 0 -9
-14 -6 -14 4 -20 2 -15 -5 4 -6 0 -8 -10 -4 -9 3 -19 1 -23 -5 -5 -7 -2 -8 7
-3 12 8 12 6 0 -9 -11 -13 -16 -14 -22 -4 -6 8 -9 9 -9 2 0 -7 -7 -15 -16 -18
-8 -3 -13 -2 -10 2 5 9 -41 8 -50 -1 -10 -10 -34 4 -27 16 3 6 -4 3 -16 -5
-12 -9 -32 -13 -43 -10 -14 3 -19 1 -14 -6 4 -7 -4 -9 -25 -7 -26 4 -29 2 -19
-10 14 -17 -1 -20 -17 -4 -8 8 -13 8 -17 0 -4 -6 -18 -11 -32 -11 -13 0 -24
-4 -24 -10 0 -5 -7 -10 -16 -10 -9 0 -12 5 -8 12 4 7 3 8 -4 4 -7 -4 -12 -14
-12 -23 0 -12 -3 -13 -14 -4 -10 9 -15 8 -20 -4 -3 -8 -13 -15 -21 -15 -10 0
-13 -5 -9 -12 6 -10 4 -10 -7 -2 -10 8 -18 6 -31 -7 -9 -9 -13 -21 -10 -25 4
-4 1 -4 -7 1 -12 7 -11 10 4 22 11 7 14 13 8 13 -5 0 -18 -9 -28 -20 -10 -11
-20 -18 -23 -15 -3 2 -10 -2 -16 -11 -6 -8 -21 -16 -34 -17 -12 0 -22 -5 -22
-10 0 -5 -9 -7 -20 -4 -11 3 -18 1 -14 -4 5 -8 -9 -13 -28 -10 -5 0 -8 -6 -8
-15 0 -8 -5 -12 -10 -9 -6 4 -7 11 -4 17 4 7 2 8 -5 4 -6 -4 -9 -12 -6 -17 4
-5 -3 -9 -14 -9 -12 0 -31 -10 -43 -22 -12 -12 -19 -15 -16 -6 4 8 1 15 -7 15
-8 0 -13 -5 -12 -11 1 -6 -12 -11 -30 -10 -18 0 -30 -2 -28 -5 3 -2 0 -10 -6
-18 -9 -10 -15 -10 -25 -2 -11 9 -15 7 -20 -5 -3 -9 -16 -16 -29 -16 -12 0
-28 -7 -35 -15 -7 -8 -18 -15 -24 -15 -7 0 -6 4 2 9 11 7 10 9 -3 14 -11 5
-14 3 -9 -5 5 -8 2 -9 -11 -4 -15 5 -16 4 -5 -9 11 -13 10 -14 -4 -9 -10 4
-16 1 -17 -7 0 -8 -4 -5 -9 6 -6 15 -9 16 -9 4 -1 -9 -8 -16 -16 -17 -8 -1
-22 -3 -30 -4 -8 -1 -15 -5 -15 -9 0 -3 -9 -9 -20 -12 -13 -3 -18 -1 -13 6 4
8 2 8 -9 0 -8 -7 -19 -9 -23 -5 -5 4 -5 2 -2 -4 4 -7 0 -15 -9 -18 -24 -9 -31
-7 -14 4 11 7 11 10 2 10 -7 0 -17 -10 -22 -23 -8 -19 -9 -20 -9 -3 -1 19 -1
19 -14 1 -8 -10 -19 -15 -25 -11 -6 3 -13 2 -17 -3 -3 -5 -14 -8 -25 -6 -13 3
-17 -1 -13 -11 3 -7 10 -11 16 -7 6 3 7 1 3 -6 -4 -6 -13 -8 -19 -4 -19 12
-37 12 -37 1 0 -6 -6 -8 -14 -5 -8 3 -17 -1 -20 -8 -3 -8 -12 -12 -21 -9 -9 4
-15 1 -15 -7 0 -12 -2 -12 -9 -1 -6 11 -10 10 -15 -4 -6 -16 -8 -16 -16 -4 -7
10 -10 11 -10 3 0 -7 -5 -13 -11 -13 -5 0 -7 6 -3 13 5 7 0 6 -10 -3 -11 -8
-30 -13 -44 -12 -18 3 -22 0 -16 -10 6 -11 5 -11 -8 0 -12 9 -18 10 -23 2 -4
-6 -14 -9 -22 -6 -8 4 -11 1 -8 -5 4 -6 1 -9 -6 -8 -18 3 -52 -11 -61 -25 -5
-7 -8 -6 -9 4 0 10 -3 8 -8 -5 -5 -11 -12 -20 -17 -20 -5 0 -14 -4 -21 -8 -6
-4 -14 -3 -17 2 -6 10 -56 -9 -56 -21 0 -4 -6 -5 -14 -2 -8 3 -17 0 -21 -6 -6
-9 -10 -9 -16 1 -6 11 -15 7 -40 -16 -18 -17 -29 -25 -26 -19 3 6 0 11 -8 11
-8 0 -12 -4 -10 -8 8 -13 -22 -18 -34 -6 -9 9 -10 8 -5 -7 6 -16 4 -18 -9 -13
-9 3 -17 2 -17 -4 0 -6 -4 -7 -10 -4 -5 3 -10 1 -10 -5 0 -6 -4 -8 -10 -5 -5
3 -10 1 -10 -6 0 -7 -3 -9 -7 -6 -3 4 -12 -1 -20 -11 -8 -9 -12 -12 -9 -5 5 8
0 8 -18 0 -13 -7 -22 -15 -20 -18 2 -4 -7 -6 -22 -4 -17 2 -24 -2 -20 -11 3
-8 0 -11 -10 -7 -7 3 -14 1 -14 -5 0 -5 -7 -13 -16 -16 -14 -5 -15 -4 -5 8 10
12 9 13 -8 9 -12 -3 -21 -10 -21 -15 0 -5 -4 -6 -10 -3 -5 3 -10 1 -10 -6 0
-7 -3 -9 -7 -6 -3 4 -12 -1 -20 -11 -8 -9 -12 -12 -9 -5 4 6 2 14 -4 18 -5 3
-10 -1 -10 -10 0 -9 -5 -13 -11 -10 -5 4 -19 -1 -30 -11 -19 -17 -20 -17 -13
2 5 16 3 15 -13 -4 -19 -23 -20 -23 -38 -5 -17 16 -18 16 -12 1 5 -14 1 -18
-14 -18 -13 0 -18 4 -13 13 5 8 3 8 -9 -2 -9 -7 -15 -17 -12 -20 2 -4 -2 -8
-10 -8 -8 0 -12 4 -10 8 3 4 -4 5 -15 2 -11 -3 -17 -10 -13 -17 4 -6 -2 -4
-12 4 -15 12 -17 12 -10 1 6 -11 4 -13 -10 -7 -16 6 -16 4 -4 -10 13 -16 12
-16 -8 -5 -16 8 -23 8 -23 1 0 -6 -5 -8 -10 -5 -6 4 -17 1 -25 -5 -8 -6 -20
-8 -27 -4 -9 6 -9 3 1 -9 12 -15 12 -17 -3 -11 -11 4 -23 -1 -32 -12 -9 -11
-13 -13 -9 -7 3 7 2 13 -3 13 -6 0 -12 -7 -16 -15 -3 -8 -11 -12 -19 -9 -8 3
-20 -2 -27 -10 -7 -9 -16 -13 -22 -10 -5 3 -16 0 -25 -8 -14 -11 -16 -11 -9 2
6 11 4 11 -6 -1 -7 -9 -21 -15 -30 -13 -10 1 -21 -3 -25 -8 -4 -7 -1 -8 7 -3
9 5 11 4 6 -4 -6 -9 -11 -9 -21 -1 -10 8 -15 8 -21 -1 -5 -8 -3 -9 7 -4 12 8
12 6 0 -8 -7 -9 -17 -14 -23 -11 -5 3 -15 0 -23 -6 -12 -10 -15 -10 -16 1 0 8
-4 4 -9 -8 -5 -13 -15 -23 -22 -23 -9 0 -9 3 2 10 9 6 10 10 3 10 -7 0 -17 -8
-22 -17 -7 -13 -10 -14 -11 -4 0 10 -5 9 -18 -5 -9 -10 -24 -19 -32 -19 -8 0
-14 -5 -13 -11 1 -7 -5 -10 -15 -7 -9 2 -26 -3 -37 -11 -18 -14 731 -15 7005
-15 3864 1 7017 3 7008 6 -10 2 -18 9 -18 14 0 5 -9 9 -21 9 -13 0 -18 4 -13
13 6 9 5 9 -7 1 -11 -9 -17 -9 -26 1 -6 7 -9 17 -5 21 4 5 -1 2 -10 -5 -14
-10 -18 -11 -18 -1 0 10 -3 10 -15 0 -13 -11 -14 -10 -9 3 4 12 1 14 -15 10
-12 -3 -21 -1 -21 6 0 6 -12 11 -26 11 -14 0 -23 4 -20 8 3 5 -1 9 -9 9 -8 0
-11 -5 -8 -11 4 -6 0 -5 -9 2 -9 7 -26 15 -39 17 -13 3 -27 12 -32 20 -6 12
-12 13 -22 5 -9 -8 -14 -7 -18 4 -4 9 -14 12 -28 9 -15 -4 -20 -3 -15 5 5 8 1
10 -10 5 -13 -5 -15 -3 -9 8 7 12 6 12 -7 1 -13 -10 -18 -10 -24 -1 -5 8 -3 9
6 4 9 -5 11 -4 6 4 -6 9 -11 9 -22 0 -9 -7 -14 -8 -13 -3 4 21 -2 28 -11 14
-8 -13 -10 -13 -10 2 0 14 -7 17 -30 14 -21 -2 -35 2 -44 15 -7 10 -16 16 -19
12 -4 -3 -7 0 -7 8 0 11 -2 11 -10 -1 -8 -12 -10 -12 -10 -1 0 8 -7 11 -19 8
-13 -3 -18 0 -15 8 3 8 -5 11 -25 10 -17 -1 -28 2 -25 6 2 4 0 10 -6 14 -5 3
-10 1 -10 -6 0 -8 -5 -7 -17 3 -10 9 -24 13 -32 10 -9 -3 -11 0 -6 8 6 10 4
12 -8 7 -9 -3 -17 -1 -20 6 -2 7 -10 12 -18 13 -44 3 -50 5 -44 14 3 6 1 10
-4 10 -6 0 -11 -4 -11 -10 0 -5 -9 -1 -20 10 -11 11 -25 20 -32 20 -6 0 -3 -7
8 -15 18 -14 17 -15 -8 -4 -15 7 -25 15 -23 19 2 4 -7 6 -20 4 -14 -1 -25 2
-25 8 0 6 -7 7 -16 4 -9 -4 -13 -2 -8 5 4 8 -1 9 -16 4 -17 -5 -20 -4 -15 5 5
8 3 11 -6 8 -7 -2 -20 3 -29 12 -8 9 -10 9 -5 1 8 -11 3 -11 -22 3 -18 9 -33
13 -33 9 0 -5 -4 -3 -8 2 -10 14 -56 39 -48 27 3 -6 -2 -8 -14 -5 -11 3 -20
10 -20 15 0 5 -4 6 -10 3 -5 -3 -10 -1 -10 6 0 6 -8 9 -20 6 -10 -3 -19 -2
-18 2 2 19 -4 22 -19 10 -11 -10 -14 -10 -9 -1 4 6 2 13 -3 13 -6 1 -14 2 -18
3 -5 1 -23 6 -40 10 -18 4 -33 12 -33 17 0 6 -5 7 -10 4 -6 -3 -10 -2 -10 4 0
6 -7 8 -16 4 -10 -3 -20 0 -25 9 -5 10 -18 14 -34 10 -18 -3 -25 0 -25 12 0
10 -5 13 -17 9 -12 -5 -14 -3 -8 8 6 11 5 12 -6 1 -17 -15 -33 -16 -23 0 5 8
2 9 -9 5 -9 -3 -16 -3 -14 1 1 4 -2 8 -8 10 -5 2 -21 10 -34 19 -23 14 -24 14
-17 -3 6 -17 5 -16 -16 2 -13 10 -26 24 -30 29 -5 6 -8 5 -8 -3 0 -10 -4 -9
-16 2 -8 9 -19 14 -24 11 -5 -3 -11 1 -13 7 -4 10 -8 9 -16 -2 -10 -13 -15 -8
-12 12 0 4 -7 4 -16 1 -12 -5 -14 -3 -8 8 7 11 5 11 -10 -1 -17 -14 -18 -13
-12 4 6 15 5 17 -7 7 -11 -9 -17 -8 -29 3 -11 11 -17 12 -26 3 -8 -8 -11 -8
-11 1 0 7 -12 12 -27 13 -16 0 -22 3 -15 6 10 4 7 9 -10 18 -15 7 -27 8 -35 2
-8 -5 -13 -6 -13 0 0 8 -14 12 -57 15 -7 1 -10 5 -7 10 3 4 -4 8 -16 8 -13 0
-19 4 -14 12 4 7 3 8 -5 4 -17 -11 -53 3 -44 17 5 9 3 9 -8 1 -11 -9 -17 -9
-26 1 -6 7 -9 17 -5 21 4 5 -2 2 -12 -6 -13 -10 -17 -10 -12 -2 4 7 1 12 -9
12 -9 0 -14 -4 -11 -8 3 -5 -1 -9 -9 -9 -8 0 -12 8 -10 20 4 15 2 17 -10 7 -9
-8 -15 -8 -15 -2 0 5 -13 9 -30 8 -16 -1 -30 1 -30 6 0 4 -5 8 -11 8 -5 0 -7
-6 -3 -12 4 -7 -2 -5 -13 4 -11 10 -29 18 -41 18 -12 0 -22 6 -22 13 0 8 -4 7
-10 -3 -5 -8 -10 -10 -10 -4 0 17 -66 34 -81 20 -9 -8 -10 -8 -5 1 5 9 -8 16
-39 24 -34 9 -43 14 -33 21 9 7 7 8 -9 5 -17 -4 -23 -1 -23 11 0 15 -2 15 -10
2 -5 -8 -10 -10 -10 -4 0 6 -12 16 -26 22 -16 8 -22 17 -18 25 5 7 0 6 -12 -3
-10 -8 -16 -11 -12 -6 10 12 -17 36 -40 36 -11 0 -23 6 -25 13 -4 9 -6 8 -6
-2 -1 -10 -4 -11 -15 -2 -10 8 -16 9 -21 1 -3 -5 -11 -10 -16 -10 -6 0 -8 4
-5 9 8 12 -13 8 -41 -7 -18 -10 -25 -9 -37 4 -15 14 -16 14 -16 -3 0 -14 -2
-15 -9 -4 -7 10 -10 10 -13 1 -3 -9 -9 -8 -21 4 -12 12 -17 13 -17 4 0 -7 -7
-2 -16 10 -13 19 -18 21 -32 10 -13 -11 -14 -11 -7 1 6 11 4 13 -8 8 -12 -4
-14 -2 -10 11 6 15 5 16 -12 2 -11 -9 -16 -10 -11 -3 6 12 -5 18 -26 14 -5 0
-8 3 -8 8 0 5 -7 12 -16 15 -8 3 -12 2 -9 -4 3 -6 1 -10 -4 -10 -6 0 -11 7
-11 16 0 14 -3 15 -17 3 -10 -7 -15 -10 -11 -5 11 13 -21 39 -39 32 -13 -6
-14 -4 -3 9 7 9 9 15 4 14 -26 -5 -45 2 -38 14 4 6 3 9 -1 4 -5 -4 -22 5 -39
20 l-31 28 25 -28 c16 -18 19 -26 9 -22 -9 3 -22 17 -29 30 -7 13 -16 22 -21
20 -4 -3 -13 11 -19 30 -6 19 -15 33 -20 30 -4 -3 -11 2 -14 11 -3 8 -11 12
-17 8 -6 -3 -15 0 -20 7 -7 12 -9 11 -9 -1 0 -13 -1 -13 -10 0 -9 13 -11 13
-20 0 -6 -10 -10 -11 -10 -2 0 14 -21 12 -32 -3 -5 -6 -8 -4 -8 5 0 13 -2 13
-9 1 -8 -13 -12 -13 -27 0 -11 9 -15 9 -10 2 4 -7 2 -13 -3 -13 -6 0 -11 6
-11 13 0 9 -2 9 -9 -1 -8 -14 -91 -14 -91 0 0 4 -7 8 -15 8 -8 0 -15 6 -15 13
0 8 -4 7 -10 -3 -8 -12 -10 -12 -10 -1 0 8 -3 11 -7 8 -3 -4 -12 1 -20 11 -9
10 -12 11 -7 2 6 -11 2 -10 -13 3 -11 9 -23 14 -26 10 -4 -3 -7 -1 -7 6 0 8
-8 11 -20 8 -14 -3 -20 0 -20 10 0 13 -3 13 -16 3 -8 -8 -14 -9 -13 -4 4 22
-3 29 -28 31 -15 0 -33 9 -40 19 -9 13 -13 14 -13 4 0 -9 -4 -8 -14 5 -9 12
-20 16 -35 12 -17 -4 -20 -3 -11 8 8 9 6 14 -5 19 -9 3 -13 2 -10 -4 3 -6 1
-10 -4 -10 -6 0 -11 8 -11 18 0 13 -2 14 -9 4 -7 -11 -9 -10 -14 3 -4 9 -20
21 -37 26 -16 6 -28 15 -25 19 3 5 -4 7 -15 5 -13 -2 -20 1 -20 11 0 8 -4 12
-10 9 -5 -3 -10 -1 -10 5 0 6 -5 8 -12 4 -7 -5 -9 -2 -6 7 4 10 -1 15 -14 16
-11 1 -28 11 -38 23 -10 12 -27 23 -37 25 -10 1 -17 8 -15 15 2 8 -3 10 -14 6
-11 -4 -15 -2 -11 8 3 8 -1 13 -11 12 -11 -1 -16 6 -16 17 2 15 -1 16 -14 5
-13 -11 -15 -10 -9 5 4 11 3 16 -3 12 -11 -7 -66 45 -62 58 1 5 -2 6 -8 2 -5
-3 -10 0 -10 7 0 9 -3 9 -10 -2 -8 -12 -10 -11 -10 8 0 13 -6 22 -15 22 -9 0
-12 6 -8 17 4 9 2 14 -3 10 -6 -3 -16 -2 -24 4 -13 7 -13 9 0 9 12 1 11 3 -3
11 -9 6 -15 14 -12 20 4 5 1 9 -5 9 -6 0 -8 5 -5 10 3 6 -1 10 -9 10 -9 0 -16
5 -16 11 0 5 5 7 11 4 6 -4 5 2 -3 14 -7 12 -17 21 -22 21 -4 0 -3 6 3 13 8
11 6 18 -9 32 -12 10 -18 25 -16 32 3 7 0 13 -7 13 -9 0 -8 3 1 9 11 6 10 10
-3 15 -13 4 -16 14 -13 37 3 21 0 33 -9 36 -12 5 -12 7 -1 14 10 6 8 9 -7 9
-17 0 -17 2 -5 10 12 8 12 10 -5 10 -11 0 -15 4 -10 8 14 10 17 32 4 32 -6 0
-9 9 -6 20 4 14 0 20 -11 20 -10 0 -13 3 -7 8 14 10 17 32 5 32 -5 0 -10 5
-10 11 0 5 6 7 13 3 6 -4 4 2 -6 13 -14 16 -15 22 -5 26 10 4 10 6 1 6 -7 1
-13 6 -13 12 0 5 6 7 13 3 9 -5 9 -4 0 6 -6 7 -9 19 -6 26 3 8 -1 14 -8 14
-11 0 -11 3 1 10 8 5 10 10 3 10 -13 0 -12 18 1 39 6 9 5 12 -1 8 -6 -4 -14 0
-17 9 -3 8 -2 12 4 9 6 -3 10 -2 10 4 0 5 -6 12 -12 14 -9 4 -9 6 1 6 11 1 10
5 -5 17 -10 8 -13 13 -6 9 13 -7 17 17 5 29 -10 9 -13 37 -4 31 14 -8 6 42 -9
61 -9 11 -10 15 -2 10 15 -9 16 6 0 22 -9 9 -9 12 1 12 11 0 11 3 0 17 -12 15
-12 16 1 8 12 -6 13 -5 3 6 -7 7 -13 17 -13 22 0 4 6 5 13 1 6 -4 4 2 -6 13
-14 16 -15 23 -6 29 8 4 10 3 5 -4 -10 -17 -1 -15 14 4 8 8 9 14 4 13 -21 -4
-35 2 -29 12 11 16 12 70 3 75 -5 3 -4 12 3 20 8 10 9 18 0 27 -6 8 -8 17 -4
21 11 11 11 46 0 46 -6 0 -7 3 -4 7 4 3 1 13 -6 21 -9 13 -9 14 1 8 7 -4 12
-1 12 9 0 10 5 13 12 9 7 -4 8 -3 4 5 -4 6 -12 9 -17 6 -11 -7 -7 24 5 44 6 9
5 12 -1 8 -6 -4 -14 0 -17 9 -3 8 -2 12 3 9 5 -3 12 -1 16 5 3 5 1 10 -4 10
-6 0 -10 3 -10 8 1 4 0 12 -1 17 -4 22 -1 107 4 113 3 3 -2 14 -11 25 -10 11
-13 17 -7 14 7 -4 15 0 18 8 3 9 -1 18 -9 22 -13 5 -13 7 2 19 11 9 13 13 4
12 -7 -2 -15 5 -16 15 -2 9 1 15 6 11 5 -3 9 0 9 5 0 6 -6 11 -12 11 -10 0 -9
3 1 9 11 7 11 9 0 14 -12 5 -12 7 0 15 11 8 11 11 0 16 -11 5 -11 7 -1 12 10
5 10 9 1 20 -9 11 -8 14 5 14 9 0 16 6 16 14 0 8 12 24 28 36 15 12 20 18 12
14 -8 -4 -4 4 10 18 14 13 30 22 35 19 6 -3 4 3 -4 13 -11 13 -11 16 -2 14 8
-2 15 6 17 16 1 11 10 23 18 28 9 5 16 14 16 19 0 16 27 39 36 31 5 -4 2 2 -6
12 -10 13 -10 17 -2 12 7 -4 12 -2 12 4 0 6 4 8 10 5 6 -3 7 1 4 9 -4 11 0 16
11 16 11 0 15 5 11 15 -3 8 0 15 6 15 6 0 8 3 5 7 -4 3 4 16 18 28 13 13 21
26 18 29 -4 3 0 6 7 6 7 0 10 3 7 7 -4 3 1 12 11 19 10 8 12 13 5 14 -9 0 -7
6 5 18 9 11 20 17 24 15 4 -2 5 6 3 17 -2 13 1 20 11 20 8 0 13 4 9 9 -3 5 -1
12 5 16 5 3 10 15 10 25 0 10 8 24 18 29 9 6 13 11 8 11 -5 0 -2 8 5 17 12 14
12 16 -1 9 -8 -4 -4 2 10 14 14 12 18 19 10 15 -12 -5 -12 -4 1 7 9 7 14 19
12 26 -3 6 0 12 7 12 6 0 8 5 5 10 -3 6 -1 10 5 10 7 0 10 7 6 15 -3 9 3 19
14 25 11 6 17 16 14 25 -4 8 -1 15 5 15 6 0 10 3 9 8 -1 4 4 23 11 42 8 19 13
38 12 43 0 4 7 7 16 8 10 0 13 3 6 5 -7 3 -9 12 -6 20 3 7 10 11 17 7 6 -4 5
1 -3 11 -12 14 -12 17 -1 14 10 -2 14 6 14 25 -1 19 3 26 11 23 9 -3 11 4 5
30 -6 27 -5 32 4 25 8 -7 12 -3 14 17 1 15 10 33 19 39 10 8 12 13 5 13 -9 0
-10 5 -2 19 5 11 10 29 10 41 0 13 4 19 12 14 6 -4 8 -3 5 3 -4 6 2 26 12 46
16 31 16 35 2 30 -13 -4 -13 -2 2 10 11 9 15 21 10 32 -3 10 -2 16 3 13 5 -4
10 5 11 19 0 14 7 29 15 34 10 7 10 9 -2 9 -12 1 -12 3 2 14 13 10 15 15 6 24
-9 9 -9 12 1 12 7 0 10 4 6 9 -3 5 -1 13 5 16 8 5 7 12 -2 23 -11 13 -11 14 1
7 11 -6 13 -3 9 13 -4 13 -2 20 6 19 6 -1 10 6 10 15 -1 10 1 17 5 16 3 0 8 1
11 2 3 1 25 3 50 5 24 1 46 8 48 14 3 8 9 6 17 -6 13 -17 14 -17 20 -1 4 10
11 15 16 12 5 -3 9 0 9 5 0 6 5 11 11 11 5 0 7 -6 3 -12 -5 -9 -3 -9 9 1 9 7
14 18 10 24 -3 6 -1 7 5 3 7 -4 21 2 33 13 12 11 27 17 33 14 6 -3 8 -3 5 1
-3 3 11 25 32 48 22 24 36 49 34 60 -2 10 0 18 6 18 5 0 9 9 9 19 0 11 5 21
10 23 6 2 12 13 13 26 1 12 8 22 17 22 9 0 11 3 5 8 -15 10 -17 32 -3 32 6 0
9 3 5 6 -3 4 0 19 9 35 8 16 11 29 7 29 -4 0 -2 5 5 12 7 7 12 17 12 22 0 6
-5 4 -10 -4 -7 -10 -10 -11 -10 -2 0 7 7 15 15 18 8 4 12 10 9 15 -3 5 -1 9 5
9 6 0 7 7 4 17 -4 11 -3 14 5 9 7 -4 12 -1 12 9 0 10 -5 14 -12 10 -7 -4 -2 3
12 14 21 18 22 20 5 15 -20 -6 -20 -5 -1 10 11 9 16 16 12 16 -5 0 -2 8 5 17
12 14 12 16 -1 9 -9 -4 -8 -2 2 7 10 8 15 17 11 20 -3 4 0 14 8 24 12 15 12
16 -1 9 -12 -6 -11 -4 1 6 9 7 14 19 12 26 -3 6 0 12 7 12 6 0 10 6 9 13 -4
29 2 48 12 41 7 -4 7 1 -1 16 -8 15 -8 20 -1 16 7 -5 11 4 11 24 0 21 4 29 12
24 6 -4 8 -3 4 4 -3 6 -2 14 4 17 8 5 7 11 -1 21 -11 13 -5 19 15 15 5 -1 4 4
-3 13 -9 10 -9 16 -1 21 7 4 10 16 7 26 -3 11 -1 19 5 19 5 0 7 4 3 9 -3 5 -1
12 5 16 6 4 8 11 5 16 -4 5 -2 9 4 9 6 0 8 7 5 15 -4 8 -2 15 4 15 5 0 9 10 8
23 0 12 4 21 9 20 6 -1 11 10 10 25 0 15 6 33 15 40 9 8 10 11 2 7 -11 -6 -12
-3 -3 13 6 11 17 22 26 26 8 3 15 9 14 13 -3 20 2 34 10 28 5 -3 12 -1 16 5 3
5 0 10 -7 10 -7 1 -3 6 10 13 12 7 19 16 16 20 -7 7 11 11 30 8 5 -1 4 4 -3
13 -14 16 2 32 21 20 6 -4 8 -3 5 3 -4 6 0 16 9 23 8 7 13 19 10 27 -3 8 -1
11 4 8 9 -6 14 8 11 28 0 4 3 7 9 7 5 0 10 7 10 15 0 8 5 15 11 15 8 0 7 5 -1
16 -11 12 -11 15 0 12 9 -2 14 7 15 27 0 20 5 29 15 27 10 -2 11 0 2 11 -9 10
-8 19 5 37 9 13 11 20 5 16 -7 -4 -12 -3 -12 3 0 5 5 13 11 17 6 3 9 22 7 40
-3 26 -1 33 9 30 11 -4 11 -1 3 14 -8 15 -8 20 2 20 9 0 9 3 -2 10 -9 6 -11
10 -3 10 7 0 10 7 6 17 -5 12 -3 14 8 8 8 -5 5 2 -6 15 -11 13 -15 20 -9 17 7
-4 15 0 18 9 3 8 2 12 -4 9 -6 -3 -10 -1 -10 4 0 6 4 11 9 11 10 0 7 43 -5 61
-4 7 -3 10 3 6 14 -9 23 16 13 34 -5 8 -4 19 2 26 8 10 7 13 -3 13 -10 0 -11
2 -2 8 7 4 12 16 13 27 0 11 1 31 1 45 1 14 1 30 -1 35 -6 24 1 46 13 39 6 -4
4 1 -5 12 -17 19 -17 21 0 38 9 11 12 16 5 12 -7 -4 -12 1 -12 11 -2 62 -6 83
-14 83 -5 0 -4 7 3 15 10 12 10 15 0 15 -9 0 -9 4 1 17 8 9 9 14 3 10 -7 -4
-18 1 -25 10 -10 12 -10 14 -1 9 6 -4 12 -2 12 3 0 6 -4 11 -10 11 -5 0 -10 7
-10 16 0 18 -17 37 -42 47 -10 3 -18 11 -18 17 0 6 -4 8 -10 5 -5 -3 -10 -1
-10 4 0 6 -5 11 -11 11 -5 0 -8 -4 -5 -9 4 -5 -5 -4 -18 2 -13 7 -23 14 -21
18 2 3 -2 6 -10 6 -8 0 -12 -4 -9 -9 3 -4 1 -8 -5 -8 -5 0 -13 5 -16 10 -5 8
-11 8 -19 1 -7 -6 -16 -8 -19 -4 -4 3 -7 2 -7 -4 0 -6 -9 -9 -22 -5 -17 4 -20
2 -14 -13 5 -15 4 -16 -9 -5 -11 9 -15 9 -15 1 0 -7 -4 -9 -10 -6 -5 3 -10 1
-10 -6 0 -8 -5 -7 -17 2 -14 12 -16 12 -8 0 6 -11 3 -13 -13 -9 -12 4 -20 3
-17 -2 3 -4 -1 -10 -8 -13 -15 -6 -17 40 -3 62 6 10 6 12 -2 7 -7 -4 -12 -2
-12 4 0 6 7 13 15 16 8 4 12 10 9 15 -3 5 1 9 8 9 8 0 23 7 34 16 19 15 19 16
0 9 -19 -6 -19 -5 -1 15 18 19 18 20 -1 20 -18 1 -18 1 -1 11 14 8 15 14 7 24
-8 10 -8 15 1 21 8 5 9 3 4 -6 -6 -9 -4 -11 5 -5 10 6 9 11 -6 23 -15 12 -15
13 -2 9 13 -5 18 3 23 34 4 21 11 39 16 39 5 0 0 10 -11 22 l-21 23 28 22 c15
13 24 23 18 23 -5 0 -3 5 5 11 13 9 12 10 -2 5 -10 -3 -18 -1 -18 4 0 5 8 14
18 20 13 8 13 10 2 8 -9 -2 -16 2 -17 7 0 6 4 9 9 7 6 -2 8 5 4 14 -6 15 -4
15 11 3 15 -13 15 -12 6 4 -13 24 -5 69 11 60 6 -4 4 2 -4 12 -14 17 -13 18 5
12 16 -6 15 -3 -5 14 -14 11 -19 17 -11 13 11 -5 13 -3 8 9 -4 11 -2 14 8 10
8 -3 12 -10 8 -16 -4 -6 -1 -7 6 -2 9 5 10 10 2 18 -13 13 -15 30 -2 23 5 -3
8 7 7 23 -2 22 2 28 14 23 11 -4 10 0 -4 16 -17 19 -17 22 -3 22 19 0 22 15 5
26 -7 4 -8 3 -4 -4 11 -18 0 -14 -15 5 -10 11 -10 14 -1 9 7 -4 12 -2 12 4 0
7 6 10 13 7 17 -6 14 52 -4 65 -11 8 -10 9 4 4 20 -6 24 19 5 28 -7 3 -3 3 9
1 12 -3 25 0 29 6 4 8 3 9 -4 5 -8 -5 -12 0 -12 13 0 10 6 22 13 24 9 4 9 6
-2 6 -8 1 -4 8 10 21 13 10 18 19 12 20 -7 0 -13 -4 -13 -10 0 -5 -8 -10 -17
-10 -15 0 -15 2 -4 9 8 5 11 16 7 26 -5 14 -4 15 7 7 11 -9 13 -7 12 10 -1 12
-7 24 -13 26 -17 5 -15 19 4 26 8 3 12 2 9 -3 -3 -5 0 -13 7 -17 7 -4 10 -4 6
1 -4 4 -2 15 5 23 7 10 7 13 1 9 -8 -4 -11 5 -10 28 1 23 6 35 15 35 11 0 9 4
-5 15 -12 9 -14 14 -6 15 7 0 10 5 7 10 -3 6 -1 10 4 10 6 0 11 8 11 18 0 10
5 23 12 30 9 9 7 17 -8 33 -10 13 -13 19 -5 14 10 -6 12 -2 6 16 -4 16 -3 19
3 11 7 -10 12 -9 23 4 8 10 9 15 3 11 -7 -4 -14 -1 -17 7 -8 19 3 28 19 15 8
-7 14 -6 20 2 4 8 3 9 -4 5 -16 -10 -15 7 1 23 10 11 9 12 -2 6 -9 -5 -12 -3
-9 6 3 8 10 13 16 12 10 -2 7 41 -4 59 -3 4 3 5 12 1 14 -5 15 -3 7 12 -7 13
-5 31 7 66 10 27 15 51 10 54 -6 4 -7 24 -1 58 0 5 7 5 14 0 6 -4 4 5 -6 21
l-18 27 23 -11 c19 -10 21 -10 11 1 -19 20 -16 33 5 18 15 -12 15 -11 -1 8
-18 20 -18 22 0 32 16 9 16 10 -6 11 -23 0 -23 1 -8 18 14 15 15 19 2 19 -8 0
-12 -4 -9 -9 3 -4 1 -8 -4 -8 -6 0 -13 7 -16 16 -3 8 -2 12 4 9 6 -3 10 -1 10
5 0 6 5 8 10 5 6 -3 15 6 20 20 5 14 14 23 20 20 6 -4 7 1 3 10 -5 13 -7 14
-14 3 -6 -9 -9 -9 -9 -1 0 6 5 15 11 18 6 5 4 12 -8 21 -17 13 -17 14 2 7 17
-6 18 -4 8 8 -11 13 -9 15 9 15 11 -1 23 5 25 12 3 6 -3 12 -12 12 -9 0 -13 5
-10 10 4 6 11 7 17 4 6 -4 8 -2 4 4 -3 6 -2 13 4 17 5 3 10 15 10 26 0 14 -4
18 -12 13 -9 -5 -9 -2 1 9 12 15 11 17 -2 17 -10 0 -14 6 -11 15 4 8 10 12 15
9 6 -3 7 5 3 20 -4 17 -2 26 6 26 6 0 8 -5 4 -12 -5 -7 -3 -8 6 -3 10 6 10 11
-4 20 -14 11 -14 14 -2 18 19 8 15 34 -9 50 -13 10 -15 16 -6 21 6 4 8 12 5
18 -4 7 -2 8 5 4 9 -6 9 -12 -1 -24 -10 -14 -10 -15 2 -5 17 16 22 43 8 43 -6
0 -4 7 3 17 10 11 10 14 2 9 -7 -4 -13 -3 -13 1 0 5 6 15 13 22 10 11 9 12 -2
6 -11 -6 -13 -4 -8 9 6 14 3 17 -8 12 -9 -3 -13 -2 -10 4 3 6 14 10 23 10 14
0 13 2 -3 13 -14 11 -15 16 -5 22 9 6 11 4 5 -6 -5 -8 -4 -10 0 -6 14 12 15
38 2 31 -8 -5 -7 -2 1 7 14 16 16 33 2 24 -16 -10 -12 6 7 29 10 12 14 18 9
14 -14 -12 -38 12 -27 26 5 6 11 15 13 21 1 5 7 9 11 7 5 -1 6 2 2 8 -3 6 -11
8 -16 5 -5 -4 -9 -1 -9 4 0 6 8 11 17 11 15 0 15 1 -2 13 -12 10 -14 16 -7 21
7 4 12 2 12 -3 0 -6 5 -11 10 -11 7 0 7 6 0 19 -8 16 -6 22 6 29 15 8 15 10 0
15 -13 5 -15 11 -6 27 8 16 6 24 -10 40 -12 12 -15 20 -7 20 8 0 7 4 -3 10 -8
5 -10 10 -5 10 6 0 2 7 -8 14 -16 12 -16 14 -2 20 11 4 14 2 9 -7 -5 -9 -4 -9
6 0 19 17 2 37 -18 21 -15 -12 -16 -11 -4 4 8 10 11 27 7 40 -3 13 -3 18 2 13
10 -13 28 -13 40 -1 4 5 3 6 -3 3 -7 -4 -17 0 -23 7 -10 11 -8 17 6 25 12 7
13 10 4 11 -8 0 -11 6 -7 16 3 8 2 12 -4 9 -6 -3 -10 -3 -11 2 0 4 -2 19 -3
32 -3 24 -3 24 21 -5 l25 -29 -16 32 c-10 20 -12 34 -6 38 16 10 12 25 -7 26
-11 0 -13 3 -5 6 9 3 7 9 -6 21 -10 10 -16 16 -13 15 2 -2 10 5 17 15 10 14
10 20 -4 35 -15 17 -15 17 4 11 16 -5 16 -4 4 5 -13 10 -13 12 0 21 8 5 10 10
4 10 -6 0 -14 -3 -18 -7 -10 -11 -37 -12 -30 -2 3 5 9 7 14 4 4 -3 10 2 14 10
5 14 -6 20 -28 16 -5 -1 -3 5 4 14 9 11 16 13 24 5 13 -13 26 -13 26 1 0 5 -5
7 -11 3 -7 -4 -10 -1 -7 7 3 8 14 13 24 11 18 -2 18 -2 1 8 -9 6 -15 16 -11
21 3 5 0 8 -7 7 -6 -2 -14 3 -16 10 -3 8 2 10 14 6 17 -5 17 -5 0 6 -9 6 -15
15 -12 21 4 5 2 9 -4 9 -5 0 -8 11 -6 25 1 14 -2 28 -7 31 -5 3 -3 13 4 22 7
10 8 14 4 10 -14 -12 -36 11 -29 30 4 15 3 15 -6 2 -9 -13 -11 -12 -11 4 0 12
-5 16 -15 12 -8 -3 -15 -1 -15 4 0 6 8 10 18 10 14 0 15 2 2 10 -19 12 -22 47
-4 47 11 0 11 -3 1 -16 -9 -12 -9 -13 1 -7 6 4 12 2 12 -3 0 -6 5 -11 11 -11
8 0 9 4 0 13 -6 8 -8 16 -5 20 9 8 -32 27 -41 19 -5 -4 -5 -1 -1 6 4 7 11 10
15 8 4 -3 5 11 3 31 -3 21 -1 33 5 30 5 -3 10 0 10 8 0 10 -6 10 -26 -3 -25
-16 -25 -16 -12 1 12 15 12 20 -5 33 -14 11 -15 14 -3 11 9 -3 16 1 16 9 0 7
-4 11 -8 9 -3 -3 -13 3 -20 12 -12 14 -12 16 2 11 9 -4 16 -1 16 6 0 7 -6 13
-14 14 -7 1 -20 3 -28 4 -8 1 -13 4 -10 6 3 3 -2 16 -10 28 -10 15 -11 25 -4
29 6 4 3 12 -8 21 -10 7 -13 14 -8 14 6 0 3 5 -5 10 -10 6 -11 10 -2 10 6 0
12 5 12 11 0 5 -6 7 -12 3 -7 -4 -9 -3 -5 1 15 17 36 13 34 -5 -1 -10 -4 -17
-7 -15 -4 2 -7 -2 -7 -9 0 -8 7 -13 16 -11 24 3 32 -17 13 -31 -14 -10 -15
-15 -4 -26 11 -11 12 -10 7 5 -7 17 2 22 35 17 11 -1 10 2 -4 13 -12 9 -16 19
-11 27 5 7 4 11 -1 8 -11 -7 -29 12 -29 31 0 18 -35 24 -53 9 -10 -9 -12 -8
-10 3 2 8 -3 13 -12 11 -11 -3 -10 2 4 17 11 12 16 21 11 21 -4 0 -1 8 6 17
12 15 12 16 -4 10 -10 -4 -16 -3 -12 2 3 5 1 12 -5 16 -5 3 -10 12 -10 18 0 8
3 8 9 -1 7 -11 9 -11 14 1 4 12 0 14 -18 11 -20 -3 -23 -1 -18 13 6 16 5 16
-10 4 -19 -15 -24 -2 -6 16 8 8 6 13 -9 17 -11 4 -23 14 -26 23 -5 13 -9 13
-24 2 -15 -13 -16 -12 -4 3 10 13 10 17 0 20 -8 3 -6 7 6 11 10 4 15 3 11 -3
-10 -16 1 -11 16 7 8 10 9 14 2 10 -6 -4 -15 -3 -18 3 -4 6 -16 8 -28 5 -19
-5 -20 -5 -4 5 9 6 17 16 17 23 0 8 -3 8 -9 -1 -6 -11 -10 -10 -15 4 -4 11 -2
20 3 22 19 6 12 18 -11 19 -42 3 -62 10 -66 24 -2 8 0 10 5 4 4 -5 17 -11 28
-13 18 -2 19 -2 2 8 -9 6 -15 16 -11 22 4 7 -2 8 -17 3 -24 -7 -24 -7 -4 9
l20 16 -20 -6 -20 -6 20 17 c18 14 32 61 15 50 -4 -2 -21 -7 -39 -10 -27 -5
-30 -3 -19 9 9 10 15 11 20 2 6 -8 8 -8 8 1 0 6 -5 15 -10 18 -6 4 -7 12 -4
18 4 7 4 9 -1 5 -4 -4 -15 -2 -23 5 -13 10 -14 9 -7 -2 5 -10 4 -12 -3 -7 -7
4 -12 16 -12 26 0 12 -5 17 -13 14 -7 -2 -21 2 -31 9 -15 11 -16 16 -6 22 8 5
11 4 7 -2 -11 -18 25 -25 40 -8 7 8 8 11 3 7 -7 -6 -27 6 -52 29 -23 21 -45
36 -50 33 -4 -3 -5 2 -1 11 4 11 8 13 13 5 5 -7 11 -6 21 6 10 13 10 16 1 10
-16 -10 -44 12 -35 28 4 6 -1 5 -10 -3 -15 -12 -19 -12 -32 5 -8 10 -15 24
-15 29 0 6 -5 3 -10 -5 -8 -12 -10 -12 -11 5 l0 20 -9 -20 c-8 -19 -10 -16
-14 18 -1 6 -9 11 -19 9 -12 -2 -17 4 -17 20 0 19 -2 20 -10 8 -8 -13 -10 -12
-10 3 0 16 -10 21 -35 18 -5 -1 -1 6 9 14 11 8 15 15 9 15 -17 0 -76 57 -70
67 3 5 -7 8 -22 7 -24 -1 -27 2 -25 25 2 24 -2 27 -27 26 -17 -1 -26 2 -22 8
4 6 0 8 -9 4 -12 -4 -14 -1 -11 13 4 15 1 18 -16 13 -13 -3 -21 -1 -21 8 0 7
-3 9 -7 6 -3 -4 -13 -2 -20 5 -11 9 -17 9 -24 -3 -8 -11 -9 -10 -7 6 2 13 -2
19 -12 17 -12 -3 -13 -1 -2 9 14 15 16 33 2 24 -5 -3 -10 -1 -10 4 0 14 13 14
26 1 7 -7 11 -5 11 7 0 18 -14 33 -32 33 -5 0 -3 -5 5 -10 9 -6 10 -10 3 -10
-7 0 -21 10 -33 22 -11 12 -20 16 -20 9 0 -7 -5 -9 -10 -6 -7 5 -8 11 -1 19 7
8 5 12 -8 12 -12 0 -17 -6 -14 -16 4 -9 -1 -7 -10 5 -8 11 -13 23 -11 26 2 4
-8 14 -22 24 -14 9 -23 22 -21 29 3 7 1 19 -5 27 -8 11 -9 10 -4 -3 3 -11 0
-18 -8 -18 -8 0 -17 -6 -20 -12 -3 -7 -4 -4 -3 7 1 12 -3 19 -11 17 -8 -1 -11
2 -7 8 3 5 1 10 -5 10 -6 0 -8 5 -5 10 4 6 3 9 -2 8 -4 -2 -8 1 -8 7 0 5 5 9
10 7 6 -2 6 0 2 4 -11 11 -38 14 -31 3 3 -5 0 -9 -5 -9 -6 0 -11 -4 -11 -10 0
-5 5 -9 11 -7 6 1 14 -4 16 -10 6 -18 -12 -16 -27 2 -18 21 -35 19 -19 -2 13
-16 12 -17 -3 -4 -14 11 -18 11 -18 1 0 -8 -3 -11 -6 -8 -3 4 0 16 6 28 7 12
8 20 3 17 -5 -3 -15 -2 -23 4 -13 7 -12 9 2 9 21 0 32 16 17 26 -7 4 -9 3 -6
-3 4 -6 -2 -13 -13 -16 -23 -6 -26 3 -7 23 10 12 9 12 -5 1 -16 -12 -22 -9
-19 12 0 4 -5 6 -11 5 -7 -2 -12 4 -10 12 3 11 -2 10 -17 -4 -13 -12 -21 -14
-21 -7 0 7 -4 9 -10 6 -6 -3 -7 1 -3 10 4 12 8 13 13 5 5 -9 9 -9 14 -1 4 6 4
11 -1 12 -4 0 -17 3 -28 5 -11 3 -26 6 -33 7 -18 4 -43 43 -34 53 4 5 -3 0
-15 -10 -28 -23 -29 -30 -5 -24 10 3 19 0 19 -6 0 -17 -85 -12 -107 6 -10 9
-22 13 -26 10 -4 -4 -4 -2 -1 5 4 6 17 9 30 7 15 -3 17 -2 7 3 -8 5 -16 16
-18 27 -2 11 1 15 7 11 6 -3 11 -1 11 5 0 7 -6 10 -12 7 -7 -2 -12 -11 -12
-20 1 -9 -2 -15 -6 -12 -5 3 -10 1 -12 -4 -1 -5 -10 -2 -18 7 -13 14 -12 15 4
9 14 -5 17 -3 12 8 -3 8 0 14 6 12 7 -1 12 8 13 20 0 12 9 29 20 37 16 12 18
17 7 28 -11 11 -12 10 -7 -4 4 -11 2 -18 -4 -18 -6 0 -11 9 -11 20 0 11 5 20
12 20 6 0 8 3 5 6 -4 4 -13 2 -21 -5 -11 -9 -15 -8 -20 4 -3 9 -2 14 2 11 4
-2 19 6 34 17 27 22 27 22 4 22 -14 0 -22 -5 -19 -12 3 -8 -6 -10 -29 -8 -23
3 -28 2 -18 -5 8 -5 12 -12 8 -15 -7 -7 -64 20 -92 44 -11 9 -16 11 -13 4 4
-6 3 -14 -3 -18 -9 -6 -14 8 -11 28 1 5 -3 6 -9 2 -6 -3 -8 -10 -5 -15 3 -5 1
-11 -4 -15 -6 -3 -8 4 -6 16 3 12 0 29 -5 38 -6 10 -10 11 -10 4 0 -7 -5 -13
-11 -13 -5 0 -8 4 -5 9 7 11 -13 9 -32 -3 -7 -4 -16 -5 -20 -1 -3 3 0 10 8 15
11 7 11 10 2 10 -7 0 -15 -7 -18 -15 -4 -8 -11 -12 -17 -8 -6 3 -7 1 -3 -6 4
-6 13 -8 19 -5 9 5 9 3 0 -6 -10 -11 -15 -11 -28 0 -16 13 -15 15 1 27 10 8
13 13 5 13 -7 0 -9 5 -5 13 4 7 3 9 -2 4 -5 -5 -9 -13 -9 -18 0 -5 -4 -9 -10
-8 -5 1 -9 4 -8 8 1 4 -5 8 -13 8 -7 0 -14 -4 -14 -9 0 -4 5 -8 10 -8 6 0 0
-16 -12 -35 -13 -19 -27 -35 -31 -35 -5 0 -5 4 -2 10 4 7 -2 7 -18 1 -14 -6
-28 -7 -32 -3 -4 4 -4 -4 -1 -18 6 -19 5 -21 -3 -10 -10 13 -15 8 -12 -12 0
-4 -6 -5 -15 -1 -15 5 -15 7 0 15 9 5 16 14 16 20 0 7 -6 6 -15 -2 -9 -7 -18
-10 -22 -6 -3 3 -1 6 4 6 13 0 11 25 -2 37 -4 4 -5 3 -1 -4 3 -6 2 -14 -3 -18
-6 -3 -8 3 -6 15 4 19 -6 25 -30 20 -5 -1 -7 2 -3 6 4 4 0 13 -10 21 -16 12
-15 13 3 6 11 -3 17 -3 13 2 -4 4 -3 14 4 22 6 8 7 13 2 11 -5 -2 -9 2 -9 7 0
6 4 9 8 7 5 -1 5 3 2 9 -14 21 -31 -9 -39 -66 -3 -26 -21 -21 -20 5 1 16 -2
18 -11 10 -9 -8 -15 -8 -20 0 -3 6 -10 8 -15 5 -5 -3 -10 0 -13 7 -2 8 -3 7
-3 -2 1 -8 4 -13 7 -10 9 8 39 -21 39 -38 0 -10 -8 -7 -26 12 -15 14 -30 26
-34 26 -5 0 -6 9 -3 20 3 12 0 20 -6 20 -7 0 -9 -4 -6 -10 3 -5 2 -10 -3 -10
-6 0 -13 7 -16 16 -3 8 -10 12 -16 9 -5 -3 -10 -1 -10 4 0 14 13 14 28 -1 8
-8 12 -8 12 -1 0 15 -24 23 -49 16 -22 -5 -29 -23 -10 -23 5 0 8 -4 5 -8 -2
-4 5 -14 17 -22 20 -12 21 -12 8 3 -16 21 -5 23 14 3 12 -12 12 -15 -1 -20
-14 -5 -14 -9 -3 -24 13 -15 12 -16 -3 -3 -10 7 -15 18 -11 25 4 8 2 7 -7 -1
-7 -6 -19 -9 -26 -6 -8 3 -14 0 -14 -5 0 -6 9 -9 19 -7 11 2 22 -3 25 -11 4
-11 1 -12 -12 -6 -9 5 -25 8 -35 6 -17 -2 -17 -1 -3 21 8 13 13 34 10 47 -3
12 -6 28 -6 35 -1 9 -6 9 -22 1 -12 -6 -22 -9 -23 -7 -1 2 -5 0 -10 -5 -5 -5
-3 -6 5 -2 7 4 12 2 12 -6 0 -10 3 -9 10 2 5 8 12 11 17 7 4 -5 1 -12 -7 -17
-12 -8 -12 -10 3 -16 23 -8 22 -20 -4 -27 -16 -4 -18 -3 -9 8 9 11 3 19 -29
41 -22 14 -38 30 -36 35 3 4 -3 12 -12 18 -15 8 -16 12 -4 23 12 11 13 11 6
-1 -6 -10 -4 -12 5 -6 8 5 11 4 6 -3 -3 -6 -2 -13 3 -16 5 -4 12 -2 15 3 4 5
2 12 -4 16 -6 4 -7 11 -4 17 5 7 2 8 -6 3 -10 -6 -12 -3 -6 11 5 15 2 14 -16
-6 -31 -34 -58 -35 -52 -3 3 16 1 22 -6 18 -6 -4 -9 -12 -7 -18 2 -7 1 -19 -4
-28 -7 -13 -3 -16 16 -13 14 1 23 -3 22 -9 -1 -7 4 -11 12 -9 12 3 12 1 0 -14
-13 -15 -12 -16 11 -10 21 6 22 5 8 -4 -13 -8 -23 -8 -35 -1 -12 7 -13 11 -5
11 10 0 10 3 -2 15 -20 20 -30 19 -22 -2 6 -17 5 -17 -7 -1 -8 10 -18 14 -22
10 -5 -4 -5 -1 -1 6 4 6 3 12 -3 12 -5 0 -11 -5 -13 -12 -3 -7 -7 -5 -11 6 -4
10 -3 15 3 11 6 -3 10 -1 10 6 0 6 -8 9 -20 6 -11 -3 -18 0 -17 7 1 6 -4 10
-10 8 -7 -1 -13 2 -13 8 0 5 -1 13 -2 17 -2 3 7 7 19 8 19 1 21 -1 10 -14 -10
-12 -9 -14 8 -7 34 13 40 12 37 -6 -2 -10 1 -18 6 -18 5 0 9 6 9 13 0 6 4 20
8 30 4 10 3 17 -5 17 -6 0 -8 -5 -4 -11 4 -8 -1 -9 -17 -3 -13 4 -30 7 -36 7
-7 0 -13 4 -13 9 0 5 -10 3 -22 -3 -13 -6 -20 -8 -15 -4 4 5 0 16 -9 26 -12
13 -12 19 -3 25 8 4 10 3 5 -4 -5 -8 -2 -10 8 -6 9 3 16 10 16 16 0 5 -4 7 -9
3 -12 -7 -36 34 -33 55 2 13 2 13 -7 0 -5 -8 -7 -18 -4 -23 3 -5 -4 -4 -15 2
-29 15 -37 14 -21 -5 7 -8 21 -13 31 -10 15 3 17 2 8 -9 -6 -8 -19 -11 -28 -8
-14 4 -14 3 -3 -5 8 -6 21 -8 29 -4 10 3 13 1 8 -7 -4 -6 -2 -20 6 -29 12 -15
11 -16 -4 -3 -15 11 -18 11 -19 0 0 -8 -5 -4 -11 9 -6 12 -15 22 -20 22 -4 0
-8 7 -8 16 0 8 -5 12 -10 9 -6 -4 -9 -3 -8 2 4 16 -14 53 -26 53 -6 0 -12 10
-13 21 -1 12 -7 27 -13 33 -8 8 -9 4 -1 -15 5 -15 8 -29 5 -32 -2 -2 2 -10 11
-17 8 -7 15 -18 15 -24 0 -6 -5 -3 -11 7 -6 9 -14 15 -18 12 -5 -2 -15 3 -22
12 -10 12 -10 14 -1 9 6 -4 12 -2 12 3 0 6 -9 11 -20 11 -11 0 -20 5 -20 11 0
5 -5 7 -12 3 -6 -4 -17 1 -24 11 -7 10 -20 15 -28 12 -11 -4 -13 -1 -9 11 6
15 5 16 -12 2 -14 -11 -19 -12 -22 -2 -3 6 -10 9 -16 5 -8 -5 -8 -2 0 8 10 13
10 16 -2 16 -8 0 -15 -5 -15 -10 0 -6 -8 -3 -18 6 -10 10 -22 14 -27 10 -4 -5
-2 3 5 17 12 24 12 24 -6 9 -20 -17 -44 -15 -44 3 0 6 6 6 15 -2 8 -7 15 -9
15 -6 0 4 -7 14 -15 22 -9 9 -15 11 -15 4 0 -8 -6 -8 -21 0 -30 16 -58 20 -64
9 -4 -5 -12 -6 -18 -2 -22 14 -49 14 -41 1 5 -9 2 -9 -9 1 -9 7 -17 10 -17 6
0 -4 -6 -3 -13 3 -7 6 -28 9 -47 8 -19 -1 -44 2 -55 8 -17 8 -18 7 -7 -6 9
-12 10 -18 2 -23 -6 -4 -14 -4 -17 -1 -4 3 0 6 8 6 10 1 9 4 -4 11 -9 6 -14
16 -11 22 4 7 4 9 -1 5 -4 -4 -15 -2 -24 4 -12 10 -12 8 2 -8 21 -25 23 -41 2
-20 -17 16 -49 11 -38 -7 3 -6 1 -7 -6 -3 -6 4 -9 11 -6 16 3 4 -2 13 -10 20
-8 7 -15 9 -15 5 0 -4 -6 -2 -14 4 -10 8 -16 8 -25 -2 -6 -8 -8 -17 -4 -20 3
-4 1 -7 -5 -7 -7 0 -12 5 -12 11 0 6 -7 4 -15 -5 -8 -8 -24 -13 -35 -11 -11 2
-22 -1 -25 -6 -4 -5 -11 -7 -16 -3 -5 3 -7 10 -3 15 3 5 9 7 13 5 4 -3 8 5 8
17 2 20 1 20 -8 5 -6 -10 -15 -18 -20 -18 -6 0 -8 4 -5 8 8 13 -53 5 -71 -10
-9 -7 -14 -8 -10 -2 4 7 0 14 -7 17 -8 3 -17 1 -20 -6 -3 -9 -5 -9 -5 0 -1 7
-8 10 -16 7 -8 -4 -12 -11 -8 -17 3 -6 1 -7 -5 -3 -6 4 -8 14 -5 24 6 15 5 15
-10 3 -11 -9 -17 -10 -17 -2 0 6 -4 11 -10 11 -5 0 -7 -8 -4 -17 5 -15 3 -15
-10 1 -16 19 -16 19 -16 -5 0 -16 -3 -20 -8 -11 -5 8 -16 10 -28 6 -18 -7 -18
-7 1 17 l20 24 -20 -16 c-11 -9 -26 -14 -32 -12 -7 3 -13 0 -13 -6 0 -7 -8 -7
-26 -1 -15 6 -23 6 -19 1 3 -5 1 -12 -5 -16 -5 -3 -10 1 -10 11 0 15 -2 15
-26 -1 -20 -13 -29 -14 -38 -5 -8 8 -6 10 9 5 l20 -7 -20 13 c-23 15 -85 18
-102 5 -8 -5 -13 -4 -13 3 0 7 -4 9 -10 6 -19 -12 -50 -14 -50 -3 0 6 -7 5
-17 -3 -15 -12 -16 -12 -10 3 3 10 1 20 -5 24 -6 4 -8 3 -5 -3 4 -6 0 -16 -7
-22 -11 -9 -16 -9 -22 0 -4 8 -3 9 4 5 8 -5 10 -1 5 9 -3 9 -9 12 -12 7 -3 -5
-18 -12 -33 -16 -20 -4 -30 -1 -38 11 -11 16 -11 16 -6 1 3 -10 0 -20 -6 -24
-6 -4 -8 -3 -4 4 3 6 2 13 -4 17 -5 3 -10 1 -10 -6 0 -9 -3 -9 -14 0 -16 13
-17 -1 -2 -29 4 -8 -2 -5 -13 8 -11 13 -19 28 -17 35 1 7 1 8 -2 4 -2 -4 -11
-2 -20 5 -11 8 -9 4 3 -11z m352 -38 c0 -8 -6 -9 -19 -2 -10 5 -18 11 -18 12
0 2 8 3 18 3 10 0 19 -6 19 -13z m632 1 c6 4 11 2 11 -3 0 -13 -37 -15 -44 -2
-3 4 -3 11 1 15 4 3 10 1 14 -5 4 -6 12 -8 18 -5z m-604 -3 c3 -5 2 -12 -3
-15 -5 -3 -9 1 -9 9 0 17 3 19 12 6z m435 -15 c0 -2 -7 -7 -16 -10 -8 -3 -12
-2 -9 4 6 10 25 14 25 6z m473 -42 c-4 -12 -8 -13 -14 -3 -9 15 -2 32 11 24 5
-3 6 -13 3 -21z m57 14 c0 -5 4 -7 9 -4 5 3 14 0 19 -7 8 -10 6 -13 -9 -14
-10 -1 -19 2 -19 8 0 5 -5 9 -10 9 -7 0 -7 -7 0 -22 10 -21 10 -21 -3 -6 -8
10 -17 15 -20 12 -4 -4 -2 27 2 32 5 5 31 -2 31 -8z m-1987 -73 c-3 -9 -8 -14
-10 -11 -3 3 -2 9 2 15 9 16 15 13 8 -4z m-218 -65 c3 -5 1 -10 -4 -10 -6 0
-11 5 -11 10 0 6 2 10 4 10 3 0 8 -4 11 -10z m-485 -134 c0 -2 -8 -10 -17 -17
-16 -13 -17 -12 -4 4 13 16 21 21 21 13z m50 -6 c0 -5 -2 -10 -4 -10 -3 0 -8
5 -11 10 -3 6 -1 10 4 10 6 0 11 -4 11 -10z m-201 -74 c-2 -2 -15 -9 -29 -15
-24 -11 -24 -11 -6 3 16 13 49 24 35 12z m3526 -66 c-3 -5 -12 -10 -18 -10 -7
0 -6 4 3 10 19 12 23 12 15 0z m238 -83 c4 -10 -2 -13 -21 -9 -15 3 -21 7 -14
10 6 2 9 8 6 13 -4 6 -10 6 -18 0 -8 -7 -12 -5 -12 9 0 17 3 17 27 5 15 -8 29
-20 32 -28z m313 -9 c16 -18 23 -28 15 -21 -7 6 -20 9 -29 6 -10 -4 -13 -2 -8
5 4 7 3 12 -3 12 -5 0 -11 -6 -14 -12 -2 -7 -7 -10 -11 -6 -5 4 13 48 20 48 0
0 13 -15 30 -32z m103 17 c7 3 8 0 5 -10 -5 -11 -10 -13 -19 -5 -8 7 -15 7
-19 1 -3 -5 0 -11 6 -14 10 -3 10 -8 -1 -18 -8 -8 -11 -9 -9 -4 7 13 -17 36
-28 27 -5 -4 0 3 10 15 14 17 22 20 32 12 7 -6 18 -8 23 -4z m-343 -7 c4 -7 3
-8 -4 -4 -7 4 -12 2 -12 -3 0 -6 6 -11 14 -11 8 0 17 -3 19 -7 3 -5 -5 -8 -18
-8 -13 0 -21 3 -19 7 2 4 -1 10 -7 14 -8 4 -7 9 2 15 18 11 17 11 25 -3z
m-181 -9 c11 -16 1 -19 -13 -3 -7 8 -8 14 -3 14 5 0 13 -5 16 -11z m541 -57
c-4 -3 -11 0 -16 8 -8 13 -10 13 -10 1 0 -8 -2 -12 -5 -9 -3 3 -3 12 1 21 5
15 8 15 21 1 9 -8 12 -18 9 -22z m114 -8 c0 -3 -8 0 -19 5 -10 6 -21 7 -25 4
-3 -3 -6 0 -6 8 0 12 -2 11 -10 -1 -7 -12 -9 -11 -8 6 2 21 2 21 35 1 18 -10
33 -21 33 -23z m-460 20 c0 -8 -19 -13 -24 -6 -3 5 1 9 9 9 8 0 15 -2 15 -3z
m270 -4 c0 -5 -5 -10 -11 -10 -5 0 -7 5 -4 10 3 6 8 10 11 10 2 0 4 -4 4 -10z
m-344 -36 c1 -9 0 -13 -4 -10 -3 4 -7 14 -8 22 -1 9 0 13 4 10 3 -4 7 -14 8
-22z m582 -69 c-3 -3 -9 2 -12 12 -6 14 -5 15 5 6 7 -7 10 -15 7 -18z m-24
-70 c-4 -8 -11 -12 -16 -9 -6 4 -5 10 3 15 19 12 19 11 13 -6z m216 -65 c0 -5
-2 -10 -4 -10 -3 0 -8 5 -11 10 -3 6 -1 10 4 10 6 0 11 -4 11 -10z m116 -88
c12 -7 11 -11 -6 -27 -15 -14 -21 -15 -18 -5 2 8 -2 14 -9 15 -18 0 -28 15
-10 15 23 0 21 17 -3 32 -11 7 -20 20 -20 28 0 9 10 2 26 -17 14 -18 32 -36
40 -41z m-56 8 c-8 -5 -19 -10 -25 -10 -5 0 -3 5 5 10 8 5 20 10 25 10 6 0 3
-5 -5 -10z m267 -137 c0 -7 -4 -13 -9 -13 -4 0 -8 7 -8 16 0 8 -4 13 -8 10 -4
-2 -13 4 -20 14 -11 18 -10 18 17 3 15 -9 28 -22 28 -30z m-6003 -11 c3 -5 -1
-9 -9 -9 -8 0 -12 4 -9 9 3 4 7 8 9 8 2 0 6 -4 9 -8z m-168 -172 c0 -12 -4
-16 -9 -11 -5 5 -6 14 -3 20 10 15 12 14 12 -9z m6558 -149 c-2 -2 -12 3 -22
12 -10 10 -22 14 -27 10 -4 -5 -5 -2 -1 5 6 9 13 8 31 -5 13 -10 21 -20 19
-22z m191 -151 c3 -5 1 -10 -4 -10 -6 0 -11 5 -11 10 0 6 2 10 4 10 3 0 8 -4
11 -10z m140 -180 c3 -5 -1 -10 -10 -10 -9 0 -13 5 -10 10 3 6 8 10 10 10 2 0
7 -4 10 -10z m55 -52 c0 -6 -3 -8 -7 -5 -3 4 -15 0 -25 -10 -22 -20 -24 -11
-2 11 18 19 34 21 34 4z m47 -137 c1 -23 0 -24 -10 -6 -5 11 -15 23 -21 27 -6
4 -2 6 9 6 14 -1 20 -10 22 -27z m-7702 -471 c3 -5 1 -10 -4 -10 -6 0 -11 5
-11 10 0 6 2 10 4 10 3 0 8 -4 11 -10z m7972 -113 c0 -8 -6 -14 -14 -14 -9 0
-10 4 -2 14 6 7 12 13 14 13 1 0 2 -6 2 -13z m63 -192 c0 -15 -21 -12 -30 5
-11 20 -10 21 9 10 12 -6 21 -13 21 -15z m-8125 -35 c3 -6 -1 -7 -9 -4 -18 7
-21 14 -7 14 6 0 13 -4 16 -10z m8130 -24 c0 -19 -3 -32 -6 -30 -8 5 -9 64 -1
64 4 0 7 -15 7 -34z m35 -91 c0 -12 -19 -12 -23 0 -4 9 -1 12 9 8 7 -3 14 -7
14 -8z m-6 -146 c-8 -14 -21 -11 -21 5 0 8 6 12 14 9 7 -3 10 -9 7 -14z m16
-83 c0 -2 -7 -7 -16 -10 -8 -3 -12 -2 -9 4 6 10 25 14 25 6z m-8220 -30 c0 -2
-7 -7 -16 -10 -8 -3 -12 -2 -9 4 6 10 25 14 25 6z m32 -983 c-6 -2 -9 -10 -6
-15 4 -7 2 -8 -5 -4 -13 9 -5 26 12 25 9 0 8 -2 -1 -6z m108 -637 c0 -2 -9 -6
-20 -9 -11 -3 -18 -1 -14 4 5 9 34 13 34 5z m7890 -106 c0 -5 -7 -7 -15 -4 -8
4 -15 8 -15 10 0 2 7 4 15 4 8 0 15 -4 15 -10z m-50 -160 c0 -5 -2 -10 -4 -10
-3 0 -8 5 -11 10 -3 6 -1 10 4 10 6 0 11 -4 11 -10z m-9458 -8182 c-7 -7 -12
-8 -12 -2 0 14 12 26 19 19 2 -3 -1 -11 -7 -17z"/>
<path d="M7656 13698 c3 -5 10 -6 15 -3 13 9 11 12 -6 12 -8 0 -12 -4 -9 -9z"/>
<path d="M7831 13707 c2 -1 13 -9 24 -17 19 -14 19 -14 6 3 -7 9 -18 17 -24
17 -6 0 -8 -1 -6 -3z"/>
<path d="M7684 13675 c-5 -11 -10 -13 -19 -5 -8 7 -12 6 -12 -4 0 -19 27 -14
39 7 5 9 6 17 3 17 -3 0 -8 -7 -11 -15z"/>
<path d="M7806 13673 c-6 -14 -5 -15 5 -6 7 7 10 15 7 18 -3 3 -9 -2 -12 -12z"/>
<path d="M7930 13665 c0 -8 29 -12 39 -5 9 5 4 8 -13 8 -14 0 -26 -2 -26 -3z"/>
<path d="M8017 13659 c7 -7 15 -10 18 -7 3 3 -2 9 -12 12 -14 6 -15 5 -6 -5z"/>
<path d="M8075 13650 c3 -5 8 -10 11 -10 2 0 4 5 4 10 0 6 -5 10 -11 10 -5 0
-7 -4 -4 -10z"/>
<path d="M8253 13585 c0 -8 4 -12 9 -9 5 3 6 10 3 15 -9 13 -12 11 -12 -6z"/>
<path d="M8433 13565 c0 -8 4 -12 9 -9 5 3 6 10 3 15 -9 13 -12 11 -12 -6z"/>
<path d="M6070 13547 c0 -2 6 -10 14 -16 11 -9 16 -9 22 1 4 7 4 10 -1 6 -4
-4 -14 -3 -22 3 -7 6 -13 9 -13 6z"/>
<path d="M8450 13546 c0 -2 7 -7 16 -10 8 -3 12 -2 9 4 -6 10 -25 14 -25 6z"/>
<path d="M8416 13527 c3 -10 9 -15 12 -12 3 3 0 11 -7 18 -10 9 -11 8 -5 -6z"/>
<path d="M8497 13503 c-10 -9 -8 -15 8 -37 12 -16 17 -17 30 -6 8 7 15 18 15
24 0 6 -5 3 -11 -7 -6 -9 -15 -15 -21 -11 -7 4 -5 10 3 16 11 7 9 8 -5 4 -13
-5 -17 -2 -12 9 6 16 3 19 -7 8z"/>
<path d="M8555 13460 c-3 -5 -1 -10 4 -10 6 0 11 5 11 10 0 6 -2 10 -4 10 -3
0 -8 -4 -11 -10z"/>
<path d="M8633 13435 c0 -8 4 -15 9 -15 4 0 8 4 8 9 0 6 -4 12 -8 15 -5 3 -9
-1 -9 -9z"/>
<path d="M5651 13414 c0 -11 3 -14 6 -6 3 7 2 16 -1 19 -3 4 -6 -2 -5 -13z"/>
<path d="M8650 13405 c-11 -13 -10 -15 3 -10 8 4 18 1 22 -4 3 -6 11 -9 16 -6
5 4 9 -2 9 -12 0 -15 2 -16 10 -3 10 17 8 21 -15 24 -9 1 -20 8 -24 15 -6 9
-11 8 -21 -4z"/>
<path d="M8750 13396 c0 -2 8 -10 18 -17 15 -13 16 -12 3 4 -13 16 -21 21 -21
13z"/>
<path d="M8731 13380 c0 -16 47 -75 54 -68 3 2 -3 13 -13 24 -10 11 -24 28
-30 39 -8 14 -11 16 -11 5z"/>
<path d="M8813 13365 c0 -8 4 -12 9 -9 5 3 6 10 3 15 -9 13 -12 11 -12 -6z"/>
<path d="M8856 13282 c-2 -4 -1 -14 4 -22 7 -11 9 -9 7 8 -1 24 -3 26 -11 14z"/>
<path d="M8832 13251 c-11 -7 -11 -9 2 -14 10 -4 16 -1 16 8 0 17 -1 17 -18 6z"/>
<path d="M5193 13235 c0 -8 4 -12 9 -9 4 3 8 9 8 15 0 5 -4 9 -8 9 -5 0 -9 -7
-9 -15z"/>
<path d="M9000 13226 c0 -2 7 -7 16 -10 8 -3 12 -2 9 4 -6 10 -25 14 -25 6z"/>
<path d="M5005 13189 c-4 -6 -5 -12 -2 -15 2 -3 7 2 10 11 7 17 1 20 -8 4z"/>
<path d="M9147 13166 c-3 -8 4 -21 18 -30 32 -21 45 -20 45 2 0 15 -6 18 -32
15 -23 -3 -29 -1 -19 5 8 6 9 12 3 16 -5 3 -12 0 -15 -8z"/>
<path d="M9262 13165 c1 -11 -2 -27 -6 -35 -5 -11 0 -16 16 -17 13 0 17 1 11
4 -16 6 -17 33 -2 33 5 0 7 -5 3 -12 -4 -7 -3 -8 4 -4 6 4 9 13 6 21 -4 8 -10
13 -14 10 -5 -3 -10 1 -13 7 -3 7 -5 4 -5 -7z"/>
<path d="M9235 13160 c3 -5 8 -10 11 -10 2 0 4 5 4 10 0 6 -5 10 -11 10 -5 0
-7 -4 -4 -10z"/>
<path d="M4866 13138 c3 -4 9 -8 15 -8 5 0 9 4 9 8 0 5 -7 9 -15 9 -8 0 -12
-4 -9 -9z"/>
<path d="M9223 13129 c-2 -23 3 -25 10 -4 4 8 3 16 -1 19 -4 3 -9 -4 -9 -15z"/>
<path d="M9696 13127 c3 -10 9 -15 12 -12 3 3 0 11 -7 18 -10 9 -11 8 -5 -6z"/>
<path d="M9570 13100 c0 -5 5 -10 11 -10 5 0 7 5 4 10 -3 6 -8 10 -11 10 -2 0
-4 -4 -4 -10z"/>
<path d="M4747 13036 c-4 -10 -1 -13 9 -9 7 3 14 9 14 14 0 14 -17 10 -23 -5z"/>
<path d="M9705 13040 c-3 -6 1 -7 9 -4 18 7 21 14 7 14 -6 0 -13 -4 -16 -10z"/>
<path d="M9710 13001 c-7 -15 -7 -22 2 -27 7 -4 10 -4 6 1 -4 4 -3 16 3 26 5
11 7 19 5 19 -3 0 -10 -9 -16 -19z"/>
<path d="M9730 12979 c0 -5 5 -7 10 -4 6 3 10 8 10 11 0 2 -4 4 -10 4 -5 0
-10 -5 -10 -11z"/>
<path d="M9680 12960 c-9 -6 -10 -10 -3 -10 6 0 15 5 18 10 8 12 4 12 -15 0z"/>
<path d="M9704 12949 c-3 -6 2 -18 11 -27 10 -10 15 -12 11 -5 -3 6 -2 14 4
18 5 3 10 11 10 18 0 6 -7 2 -16 -9 -13 -16 -15 -16 -10 -1 6 19 1 23 -10 6z"/>
<path d="M9749 12903 c-13 -16 -12 -17 4 -4 16 13 21 21 13 21 -2 0 -10 -8
-17 -17z"/>
<path d="M9695 12860 c3 -5 8 -10 11 -10 2 0 4 5 4 10 0 6 -5 10 -11 10 -5 0
-7 -4 -4 -10z"/>
<path d="M9810 12859 c0 -5 5 -7 10 -4 6 3 10 8 10 11 0 2 -4 4 -10 4 -5 0
-10 -5 -10 -11z"/>
<path d="M9975 12800 c-3 -5 -1 -10 4 -10 6 0 11 5 11 10 0 6 -2 10 -4 10 -3
0 -8 -4 -11 -10z"/>
<path d="M10092 12711 c-11 -6 -10 -10 0 -19 11 -8 14 -7 14 9 0 10 0 19 -1
19 0 0 -6 -4 -13 -9z"/>
<path d="M10146 12661 c-3 -5 3 -11 15 -14 16 -4 18 -3 8 9 -13 16 -16 17 -23
5z"/>
<path d="M10315 12500 c-4 -6 -11 -7 -17 -4 -7 5 -8 2 -4 -5 5 -7 10 -10 13
-7 3 3 20 -4 37 -16 17 -12 28 -18 24 -13 -4 4 -2 15 5 24 10 14 10 14 -5 3
-10 -8 -19 -9 -22 -3 -4 5 2 14 11 20 10 6 13 11 6 11 -6 0 -15 -4 -18 -10 -3
-5 -11 -10 -16 -10 -6 0 -7 5 -4 10 3 6 4 10 1 10 -3 0 -8 -5 -11 -10z"/>
<path d="M3950 12396 c0 -2 8 -10 18 -17 15 -13 16 -12 3 4 -13 16 -21 21 -21
13z"/>
<path d="M3700 12109 c0 -5 -5 -7 -12 -3 -7 4 -8 3 -4 -5 6 -9 11 -9 22 0 17
14 18 19 4 19 -5 0 -10 -5 -10 -11z"/>
<path d="M10775 12080 c10 -16 45 -32 45 -20 0 5 -7 10 -15 10 -8 0 -15 5 -15
10 0 6 -5 10 -11 10 -5 0 -7 -4 -4 -10z"/>
<path d="M10833 12060 c-1 -11 2 -20 7 -20 4 0 7 7 6 15 -3 23 -12 26 -13 5z"/>
<path d="M3656 12054 c-5 -14 -4 -15 9 -4 17 14 19 20 6 20 -5 0 -12 -7 -15
-16z"/>
<path d="M10870 11992 c9 -19 30 -23 30 -5 0 4 -3 3 -7 0 -3 -4 -12 1 -20 11
-13 15 -13 15 -3 -6z"/>
<path d="M3590 11981 c0 -5 7 -12 16 -15 14 -5 15 -4 4 9 -14 17 -20 19 -20 6z"/>
<path d="M10973 11875 c-3 -9 -3 -18 -1 -21 3 -3 8 4 11 16 6 23 -1 27 -10 5z"/>
<path d="M11055 11679 c-4 -5 -1 -8 7 -7 7 2 12 -3 11 -9 -2 -7 2 -13 7 -13 6
0 10 6 10 14 0 17 -27 29 -35 15z"/>
<path d="M3340 11540 c-9 -6 -10 -10 -3 -10 6 0 15 5 18 10 8 12 4 12 -15 0z"/>
<path d="M11142 11515 c4 -4 3 -14 -3 -21 -13 -16 2 -26 21 -13 11 6 12 9 2 9
-7 0 -11 4 -7 9 3 5 0 13 -7 17 -7 4 -10 4 -6 -1z"/>
<path d="M3306 11488 c3 -5 10 -6 15 -3 13 9 11 12 -6 12 -8 0 -12 -4 -9 -9z"/>
<path d="M3274 11396 c-19 -15 -19 -15 0 -12 11 2 22 8 24 14 5 16 0 15 -24
-2z"/>
<path d="M11251 11344 c0 -11 3 -14 6 -6 3 7 2 16 -1 19 -3 4 -6 -2 -5 -13z"/>
<path d="M11275 11309 c-4 -6 -5 -12 -2 -15 2 -3 7 2 10 11 7 17 1 20 -8 4z"/>
<path d="M3105 10531 c-3 -5 -2 -12 3 -15 5 -3 9 1 9 9 0 17 -3 19 -12 6z"/>
<path d="M3210 9260 c0 -5 5 -10 11 -10 5 0 7 5 4 10 -3 6 -8 10 -11 10 -2 0
-4 -4 -4 -10z"/>
<path d="M11263 9211 c0 -11 5 -18 9 -15 4 3 5 11 1 19 -7 21 -12 19 -10 -4z"/>
<path d="M11246 9095 c-3 -8 0 -17 6 -21 6 -4 8 -3 4 4 -3 5 -1 12 6 14 8 3 9
6 1 11 -6 4 -13 0 -17 -8z"/>
<path d="M11155 8701 c-3 -5 -2 -12 3 -15 5 -3 9 1 9 9 0 17 -3 19 -12 6z"/>
<path d="M11035 8121 c-3 -5 -2 -12 3 -15 5 -3 9 1 9 9 0 17 -3 19 -12 6z"/>
<path d="M10985 7970 c-3 -5 1 -10 10 -10 9 0 13 5 10 10 -3 6 -8 10 -10 10
-2 0 -7 -4 -10 -10z"/>
<path d="M10995 7881 c-3 -5 -2 -12 3 -15 5 -3 9 1 9 9 0 17 -3 19 -12 6z"/>
<path d="M13866 218 c3 -5 10 -6 15 -3 13 9 11 12 -6 12 -8 0 -12 -4 -9 -9z"/>
</g>
</svg>
